<svg width="28" height="29" viewBox="0 0 28 29" fill="none" xmlns="http://www.w3.org/2000/svg">
<g clip-path="url(#clip0_88_8485)">
<path d="M23.7032 5.58509C21.9186 4.76625 20.0049 4.16294 18.0039 3.81737C17.9675 3.8107 17.9311 3.82738 17.9123 3.86068C17.6662 4.29845 17.3936 4.8695 17.2027 5.31838C15.0505 4.99616 12.9094 4.99616 10.8014 5.31838C10.6105 4.85955 10.3279 4.29845 10.0807 3.86068C10.0619 3.82847 10.0255 3.81179 9.98909 3.81737C7.98928 4.16179 6.07555 4.7651 4.28978 5.58509C4.27431 5.59176 4.26107 5.60286 4.25227 5.6173C0.62233 11.0404 -0.372107 16.3302 0.115705 21.5544C0.117893 21.5799 0.132276 21.6044 0.152127 21.6199C2.54706 23.3787 4.86701 24.4464 7.14381 25.1542C7.18024 25.1653 7.21885 25.152 7.24203 25.122C7.7806 24.3865 8.2607 23.611 8.67233 22.7954C8.69661 22.7477 8.67342 22.691 8.62377 22.6721C7.86224 22.3832 7.13714 22.031 6.4396 21.6311C6.38442 21.5988 6.37999 21.5199 6.4308 21.4821C6.57758 21.3722 6.72442 21.2577 6.86458 21.1421C6.88996 21.121 6.92528 21.1166 6.95509 21.1299C11.5375 23.2221 16.4984 23.2221 21.0267 21.1299C21.0565 21.1155 21.0919 21.1199 21.1183 21.141C21.2585 21.2566 21.4053 21.3721 21.5532 21.4821C21.604 21.5199 21.6006 21.5988 21.5455 21.631C20.848 22.0388 20.1229 22.3832 19.3602 22.6709C19.3106 22.6898 19.2885 22.7476 19.3128 22.7954C19.7333 23.6098 20.2134 24.3853 20.742 25.1208C20.7641 25.1519 20.8038 25.1653 20.8402 25.1541C23.1281 24.4464 25.448 23.3786 27.843 21.6198C27.864 21.6043 27.8772 21.581 27.8794 21.5554C28.4632 15.5157 26.9015 10.2692 23.7396 5.61834C23.7319 5.60286 23.7187 5.59176 23.7032 5.58509ZM9.35674 18.3734C7.97714 18.3734 6.84035 17.1068 6.84035 15.5513C6.84035 13.9958 7.95505 12.7292 9.35674 12.7292C10.7694 12.7292 11.8952 14.0069 11.8731 15.5513C11.8731 17.1068 10.7583 18.3734 9.35674 18.3734ZM18.6606 18.3734C17.281 18.3734 16.1442 17.1068 16.1442 15.5513C16.1442 13.9958 17.2589 12.7292 18.6606 12.7292C20.0733 12.7292 21.199 14.0069 21.177 15.5513C21.177 17.1068 20.0733 18.3734 18.6606 18.3734Z" fill="white"/>
</g>
<defs>
<clipPath id="clip0_88_8485">
<rect width="28" height="28" fill="white" transform="translate(0 0.486816)"/>
</clipPath>
</defs>
</svg>
