<svg width="28" height="29" viewBox="0 0 28 29" fill="none" xmlns="http://www.w3.org/2000/svg">
<g clip-path="url(#clip0_88_8480)">
<path d="M28 5.80507C26.9587 6.26182 25.8492 6.56457 24.6925 6.71157C25.8825 6.00107 26.7908 4.88457 27.2178 3.53882C26.1083 4.20032 24.8832 4.66757 23.5777 4.92832C22.5242 3.80657 21.0227 3.11182 19.3847 3.11182C16.2067 3.11182 13.6482 5.69132 13.6482 8.85357C13.6482 9.30857 13.6867 9.74607 13.7812 10.1626C9.009 9.92982 4.78625 7.64257 1.9495 4.15832C1.45425 5.01757 1.16375 6.00107 1.16375 7.05982C1.16375 9.04782 2.1875 10.8101 3.7135 11.8303C2.79125 11.8128 1.8865 11.5451 1.12 11.1233C1.12 11.1408 1.12 11.1636 1.12 11.1863C1.12 13.9758 3.10975 16.2928 5.719 16.8266C5.25175 16.9543 4.7425 17.0156 4.214 17.0156C3.8465 17.0156 3.4755 16.9946 3.12725 16.9176C3.871 19.1908 5.9815 20.8621 8.491 20.9163C6.538 22.4441 4.05825 23.3646 1.37375 23.3646C0.903 23.3646 0.4515 23.3436 0 23.2858C2.54275 24.9256 5.55625 25.8618 8.806 25.8618C19.369 25.8618 25.144 17.1118 25.144 9.52732C25.144 9.27357 25.1352 9.02857 25.123 8.78532C26.2622 7.97682 27.2195 6.96707 28 5.80507Z" fill="white"/>
</g>
<defs>
<clipPath id="clip0_88_8480">
<rect width="28" height="28" fill="white" transform="translate(0 0.486816)"/>
</clipPath>
</defs>
</svg>
