<svg width="20" height="21" viewBox="0 0 20 21" fill="none" xmlns="http://www.w3.org/2000/svg">
<path fill-rule="evenodd" clip-rule="evenodd" d="M2.15418 8.81294C1.73127 8.98564 1.34377 9.24148 1.01461 9.57044C0.364608 10.22 0 11.1013 0 12.0202V16.0556C0 17.2063 0.933333 18.139 2.08333 18.139H4.79167C5.02292 18.139 5.20833 17.9525 5.20833 17.7223C5.20833 16.4346 5.20833 12.5256 5.20833 11.1869C5.20833 10.51 5.3646 9.87002 5.64377 9.30064C5.68127 9.22606 5.68748 9.1396 5.6604 9.06044C5.63332 8.98148 5.57706 8.91648 5.50206 8.88023C5.44998 8.85648 5.3979 8.83377 5.34581 8.81252C5.8979 8.35398 6.25 7.66231 6.25 6.88898C6.25 5.50919 5.12917 4.38898 3.75 4.38898C2.37083 4.38898 1.25 5.50919 1.25 6.88898C1.25 7.66231 1.6021 8.35419 2.15418 8.81294ZM14.6542 8.81294C14.6021 8.83439 14.55 8.85689 14.5 8.88085C14.425 8.9171 14.3667 8.98189 14.3396 9.06085C14.3146 9.1396 14.3208 9.22585 14.3562 9.30023C14.6354 9.87002 14.7917 10.51 14.7917 11.1869V17.7223C14.7917 17.8327 14.8354 17.9388 14.9146 18.0169C14.9917 18.095 15.0979 18.139 15.2083 18.139H17.9167C19.0667 18.139 20 17.2063 20 16.0556V12.0202C20 11.1013 19.6354 10.22 18.9854 9.57044C18.6562 9.24148 18.2687 8.98564 17.8458 8.81294C18.3979 8.35419 18.75 7.66231 18.75 6.88898C18.75 5.50919 17.6292 4.38898 16.25 4.38898C14.8708 4.38898 13.75 5.50919 13.75 6.88898C13.75 7.66231 14.1021 8.35419 14.6542 8.81294ZM8.28542 7.94335C6.975 8.4371 6.04167 9.70294 6.04167 11.1869V16.0556C6.04167 16.6081 6.2604 17.1381 6.65207 17.5288C7.04165 17.9194 7.57292 18.139 8.125 18.139H11.875C12.4271 18.139 12.9583 17.9194 13.3479 17.5288C13.7396 17.1381 13.9583 16.6081 13.9583 16.0556C13.9583 14.7163 13.9583 12.799 13.9583 11.1869C13.9583 9.70294 13.025 8.4371 11.7146 7.94335C12.3208 7.44669 12.7083 6.69189 12.7083 5.84731C12.7083 4.35252 11.4958 3.13898 10 3.13898C8.50625 3.13898 7.29167 4.35252 7.29167 5.84731C7.29167 6.69189 7.67917 7.44669 8.28542 7.94335Z" fill="white"/>
</svg>
