<svg width="28" height="29" viewBox="0 0 28 29" fill="none" xmlns="http://www.w3.org/2000/svg">
<g clip-path="url(#clip0_88_8489)">
<path d="M16.34 17.6419C15.6434 18.1063 14.8343 18.3518 14 18.3518C13.1658 18.3518 12.3566 18.1063 11.66 17.6419L0.18643 9.99259C0.122773 9.95015 0.0607578 9.90591 0 9.86041V22.3946C0 23.8317 1.16621 24.9722 2.57759 24.9722H25.4224C26.8594 24.9722 27.9999 23.806 27.9999 22.3946V9.86035C27.9391 9.90596 27.877 9.95031 27.8131 9.99281L16.34 17.6419Z" fill="white"/>
<path d="M1.09648 8.62759L12.5701 16.277C13.0044 16.5665 13.5022 16.7113 13.9999 16.7113C14.4978 16.7113 14.9956 16.5665 15.4299 16.277L26.9035 8.62759C27.5901 8.17013 28 7.4045 28 6.57818C28 5.15734 26.8441 4.00146 25.4233 4.00146H2.57671C1.15593 4.00152 0 5.15739 0 6.57954C0 7.4045 0.409937 8.17013 1.09648 8.62759Z" fill="white"/>
</g>
<defs>
<clipPath id="clip0_88_8489">
<rect width="28" height="28" fill="white" transform="translate(0 0.486816)"/>
</clipPath>
</defs>
</svg>
