<svg width="145" height="146" viewBox="0 0 145 146" fill="none" xmlns="http://www.w3.org/2000/svg">
<path d="M14.7433 70.158V125.326C15.0881 130.175 18.6631 134.111 23.5287 134.111H50.7323V70.158H14.7433Z" fill="white"/>
<path d="M94.6254 70.158V134.111H121.831C126.698 134.111 130.614 130.19 130.614 125.326V70.158H94.6254Z" fill="white"/>
<path d="M100.057 24.8324C105.301 24.8324 108.363 28.8667 108.288 31.6362C108.212 34.5974 106.232 36.8981 103.329 36.8981H85.3374L89.4409 31.844C93.3092 27.1492 96.2221 24.8324 100.057 24.8324ZM43.2568 24.8324C47.1009 24.8324 50.0041 27.1492 53.8724 31.844L57.9759 36.8981H39.9846C37.0798 36.8981 35.1013 34.5974 35.0256 31.6362C34.9499 28.8667 38.0223 24.8324 43.2568 24.8324ZM42.0984 11.9951C31.6777 11.9951 23.1775 20.5421 22.0272 30.1008C21.7597 32.3354 21.9515 34.6892 22.6056 36.9545H16.2385C12.0173 36.9545 8.61951 40.5037 8.61951 44.9182V54.7798C8.61951 59.1846 12.0173 62.7322 16.2385 62.7322H129.115C133.334 62.7322 136.742 59.1862 136.742 54.7798V44.9182C136.742 40.5037 133.334 36.9545 129.115 36.9545H120.698C121.36 34.6892 121.554 32.3354 121.285 30.1008C120.134 20.5405 111.636 11.9951 100.055 11.9951C90.791 11.9951 84.229 17.9836 79.5471 23.666C71.1967 34.4814 72.6322 34.4653 63.7791 23.666C59.0908 17.982 52.5207 11.9951 42.0984 11.9951Z" fill="white"/>
<path d="M60.3989 70.158H84.9619V134.111H60.3989V70.158Z" fill="white"/>
</svg>
