<svg width="345" height="195" viewBox="0 0 345 195" fill="none" xmlns="http://www.w3.org/2000/svg">
<rect x="1.20959" y="0.902954" width="342.5" height="192.5" rx="6.875" fill="#202020"/>
<rect x="1.20959" y="0.902954" width="342.5" height="192.5" rx="6.875" stroke="white" stroke-width="1.25"/>
<rect x="39.4357" y="87.4305" width="64.1053" height="20" rx="2.5" fill="black"/>
<rect x="39.4357" y="87.4305" width="64.1053" height="20" rx="2.5" stroke="white" stroke-width="0.3125" stroke-dasharray="2.5 2.5"/>
<path d="M49.1391 93.4045V101.763C49.1391 102.872 50.1365 103.681 51.245 103.681H51.7474C52.0305 103.681 52.3076 103.599 52.5455 103.445L52.9439 103.188C52.9528 103.183 52.9489 103.169 52.9383 103.169C52.149 103.155 51.5164 102.511 51.5164 101.722V95.8476C51.5164 94.7618 50.8448 93.7891 49.8293 93.4045H53.8171C55.0453 93.4045 56.041 92.4088 56.041 91.1805H46.6596C45.4314 91.1805 44.4357 92.1762 44.4357 93.4045H49.1391Z" fill="white"/>
<path d="M62.491 101.931H61.166L58.741 93.5555H59.7285L61.391 99.3305L61.8285 101.043H61.9035L62.4035 99.3305L64.3535 93.5555H65.6035L67.7535 99.3305L68.316 101.043H68.3785L68.766 99.3305L70.2285 93.5555H71.2035L69.041 101.931H67.716L65.6785 96.4805L65.016 94.5305H64.9285L64.341 96.4805L62.491 101.931ZM75.8944 101.931H75.0069V94.368H71.5569V93.5555H79.3319V94.368H75.8944V101.931ZM80.5014 101.931H79.5264L83.3139 93.5555H84.5514L88.3514 101.931H87.3514L86.2264 99.468H81.6264L80.5014 101.931ZM83.4264 95.493L81.9889 98.668H85.8639L84.4139 95.493L83.9514 94.4055H83.8764L83.4264 95.493ZM93.0741 102.056C90.5866 102.056 88.8491 100.356 88.8491 97.743C88.8491 95.1305 90.5866 93.4305 93.0741 93.4305C95.5866 93.4305 97.3241 95.1305 97.3241 97.743C97.3241 100.356 95.5866 102.056 93.0741 102.056ZM93.0741 101.193C95.1991 101.193 96.3866 100.018 96.3866 97.743C96.3866 95.468 95.1991 94.293 93.0741 94.293C90.9616 94.293 89.7866 95.468 89.7866 97.743C89.7866 100.018 90.9616 101.193 93.0741 101.193Z" fill="white"/>
<rect x="135.686" y="87.4305" width="60.5" height="20" rx="2.5" fill="black"/>
<rect x="135.686" y="87.4305" width="60.5" height="20" rx="2.5" stroke="white" stroke-width="0.3125" stroke-dasharray="2.5 2.5"/>
<path d="M148.454 96.0132L149.678 94.3364L151.753 97.1237C152.299 97.8567 152.594 98.7462 152.594 99.6601C152.594 102.053 150.616 103.993 148.223 103.993C145.787 103.993 143.773 101.995 143.773 99.5596C143.773 98.7145 144.041 97.8845 144.538 97.2013L147.034 93.7723C147.242 93.4869 147.371 93.1524 147.411 92.8016H143.773C143.773 91.7337 144.639 90.868 145.707 90.868H152.578C152.578 91.9359 151.712 92.8016 150.644 92.8016H149.404C149.404 93.5571 149.162 94.2927 148.712 94.8998L146.212 98.2753C145.584 99.1221 145.621 100.296 146.291 101.11C147.284 102.316 149.152 102.304 150.11 101.069C150.73 100.268 150.746 99.1529 150.149 98.3347L148.454 96.0132Z" fill="white"/>
<path d="M159.823 101.931H158.936V93.5555H163.036C164.786 93.5555 165.973 94.443 165.973 95.9805C165.973 97.393 164.936 98.268 163.386 98.3055V98.368C163.936 98.518 164.248 98.8805 164.536 99.368L166.111 101.931H165.086L163.598 99.5055C163.173 98.8055 162.736 98.5055 161.623 98.5055H159.823V101.931ZM159.823 94.368V97.793H163.023C164.348 97.793 165.048 97.268 165.048 96.0805C165.048 94.893 164.348 94.368 163.023 94.368H159.823ZM168.026 94.968H167.139V93.5555H168.026V94.968ZM168.026 101.931H167.139V95.7555H168.026V101.931ZM172.932 101.931H171.844L168.894 95.7555H169.857L172.357 101.056H172.432L174.919 95.7555H175.882L172.932 101.931ZM179.345 102.056C177.583 102.056 176.72 100.831 176.72 99.368V95.7555H177.608V99.2305C177.608 100.518 178.233 101.256 179.658 101.256C181.17 101.256 181.958 100.343 181.958 98.7555V95.7555H182.845V101.931H182.045V100.006H181.983C181.77 101.056 180.883 102.056 179.345 102.056ZM187.051 102.056C185.151 102.056 184.051 101.293 184.051 99.868V99.843H184.939V99.918C184.939 100.956 185.551 101.318 187.064 101.318C188.451 101.318 188.926 100.993 188.926 100.281C188.926 99.6305 188.539 99.418 187.514 99.2555L185.864 99.018C184.739 98.868 184.026 98.4305 184.026 97.4055C184.026 96.318 185.064 95.6305 186.764 95.6305C188.539 95.6305 189.689 96.3805 189.689 97.8305V97.8555H188.801V97.793C188.801 96.868 188.314 96.368 186.739 96.368C185.439 96.368 184.901 96.6805 184.901 97.418C184.901 98.0555 185.226 98.2805 186.251 98.4305L187.764 98.643C189.089 98.8305 189.801 99.2805 189.801 100.281C189.801 101.443 188.651 102.056 187.051 102.056Z" fill="white"/>
<rect x="226.936" y="48.6805" width="78.5" height="20" rx="2.5" fill="black"/>
<rect x="226.936" y="48.6805" width="78.5" height="20" rx="2.5" stroke="white" stroke-width="0.3125" stroke-dasharray="2.5 2.5"/>
<g clip-path="url(#clip0_96_9144)">
<path d="M245.17 53.6987C244.854 53.6987 244.564 53.8138 244.341 54.0039L239.45 51.1805L234.543 54.014C234.317 53.8179 234.023 53.6987 233.702 53.6987C232.994 53.6987 232.418 54.2744 232.418 54.9819C232.418 55.5458 232.784 56.0256 233.291 56.1973V61.8493L238.149 64.6541C238.134 64.7329 238.125 64.8141 238.125 64.8973C238.125 65.6049 238.701 66.1805 239.409 66.1805C240.116 66.1805 240.692 65.6049 240.692 64.8973C240.692 64.8295 240.686 64.7628 240.676 64.6978L245.61 61.8493V56.1873C246.101 56.0073 246.453 55.5349 246.453 54.9819C246.453 54.2744 245.877 53.6987 245.17 53.6987ZM244.73 61.3411L240.248 63.9284C240.023 63.7329 239.73 63.6142 239.409 63.6142C239.104 63.6142 238.823 63.7213 238.603 63.8997L234.171 61.3411V56.1758C234.647 55.988 234.985 55.5238 234.985 54.9819C234.985 54.9146 234.979 54.8486 234.969 54.7841L239.45 52.197L243.905 54.7687C243.893 54.8381 243.887 54.9092 243.887 54.9819C243.887 55.5349 244.238 56.0073 244.73 56.1873V61.3411Z" fill="white"/>
<path d="M238.919 56.5547V60.9682C238.919 61.5535 239.446 61.9805 240.031 61.9805H240.296C240.446 61.9805 240.592 61.9374 240.718 61.8564L240.928 61.7206C240.933 61.7176 240.931 61.7103 240.925 61.7102C240.508 61.7029 240.174 61.363 240.174 60.9462V57.8447C240.174 57.2714 239.82 56.7578 239.284 56.5547H241.389C242.038 56.5547 242.563 56.029 242.563 55.3805H237.61C236.961 55.3805 236.436 55.9062 236.436 56.5547H238.919Z" fill="white"/>
</g>
<path d="M252.898 63.3055C250.998 63.3055 249.898 62.543 249.898 61.118V61.093H250.786V61.168C250.786 62.2055 251.398 62.568 252.911 62.568C254.298 62.568 254.773 62.243 254.773 61.5305C254.773 60.8805 254.386 60.668 253.361 60.5055L251.711 60.268C250.586 60.118 249.873 59.6805 249.873 58.6555C249.873 57.568 250.911 56.8805 252.611 56.8805C254.386 56.8805 255.536 57.6305 255.536 59.0805V59.1055H254.648V59.043C254.648 58.118 254.161 57.618 252.586 57.618C251.286 57.618 250.748 57.9305 250.748 58.668C250.748 59.3055 251.073 59.5305 252.098 59.6805L253.611 59.893C254.936 60.0805 255.648 60.5305 255.648 61.5305C255.648 62.693 254.498 63.3055 252.898 63.3055ZM260.602 63.1805H259.264C258.039 63.1805 257.252 62.668 257.252 61.218V57.768H256.152V57.0055H257.252V55.5305H258.152V57.0055H260.602V57.768H258.152V61.268C258.152 62.1305 258.577 62.368 259.477 62.368H260.602V63.1805ZM264.775 63.1805H263.45L261.025 54.8055H262.012L263.675 60.5805L264.112 62.293H264.187L264.687 60.5805L266.637 54.8055H267.887L270.037 60.5805L270.6 62.293H270.662L271.05 60.5805L272.512 54.8055H273.487L271.325 63.1805H270L267.962 57.7305L267.3 55.7805H267.212L266.625 57.7305L264.775 63.1805ZM278.178 63.1805H277.291V55.618H273.841V54.8055H281.616V55.618H278.178V63.1805ZM282.785 63.1805H281.81L285.598 54.8055H286.835L290.635 63.1805H289.635L288.51 60.718H283.91L282.785 63.1805ZM285.71 56.743L284.273 59.918H288.148L286.698 56.743L286.235 55.6555H286.16L285.71 56.743ZM295.358 63.3055C292.87 63.3055 291.133 61.6055 291.133 58.993C291.133 56.3805 292.87 54.6805 295.358 54.6805C297.87 54.6805 299.608 56.3805 299.608 58.993C299.608 61.6055 297.87 63.3055 295.358 63.3055ZM295.358 62.443C297.483 62.443 298.67 61.268 298.67 58.993C298.67 56.718 297.483 55.543 295.358 55.543C293.245 55.543 292.07 56.718 292.07 58.993C292.07 61.268 293.245 62.443 295.358 62.443Z" fill="white"/>
<rect x="226.936" y="87.4305" width="78.5" height="20" rx="2.5" fill="black"/>
<rect x="226.936" y="87.4305" width="78.5" height="20" rx="2.5" stroke="white" stroke-opacity="0.2" stroke-width="0.3125" stroke-dasharray="2.5 2.5"/>
<g clip-path="url(#clip1_96_9144)">
<path d="M245.17 92.4487C244.854 92.4487 244.564 92.5638 244.341 92.7539L239.45 89.9305L234.543 92.764C234.317 92.5679 234.023 92.4487 233.702 92.4487C232.994 92.4487 232.418 93.0244 232.418 93.7319C232.418 94.2958 232.784 94.7756 233.291 94.9473V100.599L238.149 103.404C238.134 103.483 238.125 103.564 238.125 103.647C238.125 104.355 238.701 104.93 239.409 104.93C240.116 104.93 240.692 104.355 240.692 103.647C240.692 103.579 240.686 103.513 240.676 103.448L245.61 100.599V94.9373C246.101 94.7573 246.453 94.2849 246.453 93.7319C246.453 93.0244 245.877 92.4487 245.17 92.4487ZM244.73 100.091L240.248 102.678C240.023 102.483 239.73 102.364 239.409 102.364C239.104 102.364 238.823 102.471 238.603 102.65L234.171 100.091V94.9258C234.647 94.738 234.985 94.2738 234.985 93.7319C234.985 93.6646 234.979 93.5986 234.969 93.5341L239.45 90.947L243.905 93.5187C243.893 93.5881 243.887 93.6592 243.887 93.7319C243.887 94.2849 244.238 94.7573 244.73 94.9373V100.091Z" fill="white" fill-opacity="0.2"/>
<path d="M238.919 95.3048V99.7183C238.919 100.304 239.446 100.731 240.031 100.731H240.296C240.446 100.731 240.592 100.688 240.718 100.606L240.928 100.471C240.933 100.468 240.931 100.46 240.925 100.46C240.508 100.453 240.174 100.113 240.174 99.6963V96.5948C240.174 96.0215 239.82 95.5079 239.284 95.3048H241.389C242.038 95.3048 242.563 94.7791 242.563 94.1306H237.61C236.961 94.1306 236.436 94.6563 236.436 95.3048H238.919Z" fill="white" fill-opacity="0.2"/>
</g>
<path d="M252.898 102.056C250.998 102.056 249.898 101.293 249.898 99.868V99.843H250.786V99.918C250.786 100.956 251.398 101.318 252.911 101.318C254.298 101.318 254.773 100.993 254.773 100.281C254.773 99.6305 254.386 99.418 253.361 99.2555L251.711 99.018C250.586 98.868 249.873 98.4305 249.873 97.4055C249.873 96.318 250.911 95.6305 252.611 95.6305C254.386 95.6305 255.536 96.3805 255.536 97.8305V97.8555H254.648V97.793C254.648 96.868 254.161 96.368 252.586 96.368C251.286 96.368 250.748 96.6805 250.748 97.418C250.748 98.0555 251.073 98.2805 252.098 98.4305L253.611 98.643C254.936 98.8305 255.648 99.2805 255.648 100.281C255.648 101.443 254.498 102.056 252.898 102.056ZM260.602 101.931H259.264C258.039 101.931 257.252 101.418 257.252 99.968V96.518H256.152V95.7555H257.252V94.2805H258.152V95.7555H260.602V96.518H258.152V100.018C258.152 100.881 258.577 101.118 259.477 101.118H260.602V101.931ZM264.775 101.931H263.45L261.025 93.5555H262.012L263.675 99.3305L264.112 101.043H264.187L264.687 99.3305L266.637 93.5555H267.887L270.037 99.3305L270.6 101.043H270.662L271.05 99.3305L272.512 93.5555H273.487L271.325 101.931H270L267.962 96.4805L267.3 94.5305H267.212L266.625 96.4805L264.775 101.931ZM278.178 101.931H277.291V94.368H273.841V93.5555H281.616V94.368H278.178V101.931ZM282.785 101.931H281.81L285.598 93.5555H286.835L290.635 101.931H289.635L288.51 99.468H283.91L282.785 101.931ZM285.71 95.493L284.273 98.668H288.148L286.698 95.493L286.235 94.4055H286.16L285.71 95.493ZM295.358 102.056C292.87 102.056 291.133 100.356 291.133 97.743C291.133 95.1305 292.87 93.4305 295.358 93.4305C297.87 93.4305 299.608 95.1305 299.608 97.743C299.608 100.356 297.87 102.056 295.358 102.056ZM295.358 101.193C297.483 101.193 298.67 100.018 298.67 97.743C298.67 95.468 297.483 94.293 295.358 94.293C293.245 94.293 292.07 95.468 292.07 97.743C292.07 100.018 293.245 101.193 295.358 101.193Z" fill="white" fill-opacity="0.2"/>
<rect x="226.936" y="126.181" width="78.5" height="20" rx="2.5" fill="black"/>
<rect x="226.936" y="126.181" width="78.5" height="20" rx="2.5" stroke="white" stroke-opacity="0.2" stroke-width="0.3125" stroke-dasharray="2.5 2.5"/>
<g clip-path="url(#clip2_96_9144)">
<path d="M245.17 131.199C244.854 131.199 244.564 131.314 244.341 131.504L239.45 128.681L234.543 131.514C234.317 131.318 234.023 131.199 233.702 131.199C232.994 131.199 232.418 131.774 232.418 132.482C232.418 133.046 232.784 133.526 233.291 133.697V139.349L238.149 142.154C238.134 142.233 238.125 142.314 238.125 142.397C238.125 143.105 238.701 143.681 239.409 143.681C240.116 143.681 240.692 143.105 240.692 142.397C240.692 142.33 240.686 142.263 240.676 142.198L245.61 139.349V133.687C246.101 133.507 246.453 133.035 246.453 132.482C246.453 131.775 245.877 131.199 245.17 131.199ZM244.73 138.841L240.248 141.429C240.023 141.233 239.73 141.114 239.409 141.114C239.104 141.114 238.823 141.221 238.603 141.4L234.171 138.841V133.676C234.647 133.488 234.985 133.024 234.985 132.482C234.985 132.415 234.979 132.349 234.969 132.284L239.45 129.697L243.905 132.269C243.893 132.338 243.887 132.409 243.887 132.482C243.887 133.035 244.238 133.507 244.73 133.687V138.841Z" fill="white" fill-opacity="0.2"/>
<path d="M238.919 134.055V138.469C238.919 139.054 239.446 139.481 240.031 139.481H240.296C240.446 139.481 240.592 139.438 240.718 139.357L240.928 139.221C240.933 139.218 240.931 139.211 240.925 139.211C240.508 139.203 240.174 138.863 240.174 138.447V135.345C240.174 134.772 239.82 134.258 239.284 134.055H241.389C242.038 134.055 242.563 133.529 242.563 132.881H237.61C236.961 132.881 236.436 133.407 236.436 134.055H238.919Z" fill="white" fill-opacity="0.2"/>
</g>
<path d="M252.898 140.806C250.998 140.806 249.898 140.043 249.898 138.618V138.593H250.786V138.668C250.786 139.706 251.398 140.068 252.911 140.068C254.298 140.068 254.773 139.743 254.773 139.031C254.773 138.381 254.386 138.168 253.361 138.006L251.711 137.768C250.586 137.618 249.873 137.181 249.873 136.156C249.873 135.068 250.911 134.381 252.611 134.381C254.386 134.381 255.536 135.131 255.536 136.581V136.606H254.648V136.543C254.648 135.618 254.161 135.118 252.586 135.118C251.286 135.118 250.748 135.431 250.748 136.168C250.748 136.806 251.073 137.031 252.098 137.181L253.611 137.393C254.936 137.581 255.648 138.031 255.648 139.031C255.648 140.193 254.498 140.806 252.898 140.806ZM260.602 140.681H259.264C258.039 140.681 257.252 140.168 257.252 138.718V135.268H256.152V134.506H257.252V133.031H258.152V134.506H260.602V135.268H258.152V138.768C258.152 139.631 258.577 139.868 259.477 139.868H260.602V140.681ZM264.775 140.681H263.45L261.025 132.306H262.012L263.675 138.081L264.112 139.793H264.187L264.687 138.081L266.637 132.306H267.887L270.037 138.081L270.6 139.793H270.662L271.05 138.081L272.512 132.306H273.487L271.325 140.681H270L267.962 135.231L267.3 133.281H267.212L266.625 135.231L264.775 140.681ZM278.178 140.681H277.291V133.118H273.841V132.306H281.616V133.118H278.178V140.681ZM282.785 140.681H281.81L285.598 132.306H286.835L290.635 140.681H289.635L288.51 138.218H283.91L282.785 140.681ZM285.71 134.243L284.273 137.418H288.148L286.698 134.243L286.235 133.156H286.16L285.71 134.243ZM295.358 140.806C292.87 140.806 291.133 139.106 291.133 136.493C291.133 133.881 292.87 132.181 295.358 132.181C297.87 132.181 299.608 133.881 299.608 136.493C299.608 139.106 297.87 140.806 295.358 140.806ZM295.358 139.943C297.483 139.943 298.67 138.768 298.67 136.493C298.67 134.218 297.483 133.043 295.358 133.043C293.245 133.043 292.07 134.218 292.07 136.493C292.07 138.768 293.245 139.943 295.358 139.943Z" fill="white" fill-opacity="0.2"/>
<path d="M105.061 97.4307H135.061" stroke="white" stroke-width="0.625"/>
<path d="M196.311 97.4305H219.436V58.6805H226.311" stroke="white" stroke-width="0.625"/>
<path d="M226.311 97.4307H219.436V136.181H226.311" stroke="white" stroke-width="0.3125" stroke-dasharray="1.25 1.25"/>
<defs>
<clipPath id="clip0_96_9144">
<rect width="15" height="15" fill="white" transform="translate(231.936 51.1805)"/>
</clipPath>
<clipPath id="clip1_96_9144">
<rect width="15" height="15" fill="white" transform="translate(231.936 89.9305)"/>
</clipPath>
<clipPath id="clip2_96_9144">
<rect width="15" height="15" fill="white" transform="translate(231.936 128.681)"/>
</clipPath>
</defs>
</svg>
