<svg width="345" height="194" viewBox="0 0 345 194" fill="none" xmlns="http://www.w3.org/2000/svg">
<rect x="1.29028" y="0.652832" width="342.5" height="192.5" rx="6.875" fill="#202020"/>
<rect x="1.29028" y="0.652832" width="342.5" height="192.5" rx="6.875" stroke="white" stroke-width="1.25"/>
<path d="M175.564 92.7891L175.564 159.039" stroke="white" stroke-width="0.3125" stroke-dasharray="1.25 1.25"/>
<path d="M175.564 91.5391V47.7891" stroke="white" stroke-width="0.836749"/>
<rect x="132.08" y="20.2891" width="83.1434" height="27.694" rx="3.34699" fill="black"/>
<rect x="132.08" y="20.2891" width="83.1434" height="27.694" rx="3.34699" stroke="white" stroke-width="0.418374" stroke-dasharray="3.35 3.35"/>
<g clip-path="url(#clip0_88_8505)">
<path d="M155.015 28.0223C154.627 28.0223 154.272 28.1635 153.997 28.3968L147.996 24.9319L141.973 28.4093C141.697 28.1685 141.336 28.0223 140.941 28.0223C140.073 28.0223 139.366 28.7287 139.366 29.5971C139.366 30.2891 139.815 30.8779 140.437 31.0886V38.0249L146.399 41.467C146.38 41.5638 146.37 41.6635 146.37 41.7655C146.37 42.6339 147.077 43.3403 147.945 43.3403C148.813 43.3403 149.52 42.6339 149.52 41.7655C149.52 41.6823 149.513 41.6005 149.501 41.5207L155.555 38.0249V31.0764C156.159 30.8555 156.59 30.2757 156.59 29.5971C156.59 28.7287 155.884 28.0223 155.015 28.0223ZM154.475 37.4012L148.976 40.5765C148.699 40.3365 148.339 40.1908 147.945 40.1908C147.57 40.1908 147.226 40.3223 146.956 40.5413L141.517 37.4012V31.0622C142.101 30.8317 142.516 30.2621 142.516 29.5971C142.516 29.5145 142.509 29.4334 142.497 29.3542L147.996 26.1793L153.463 29.3354C153.448 29.4205 153.44 29.5079 153.44 29.5971C153.44 30.2757 153.872 30.8555 154.475 31.0764V37.4012Z" fill="white"/>
<path d="M145.287 33.4858L147.96 29.1201L150.633 33.4858L147.96 35.043L145.287 33.4858Z" fill="white"/>
<path d="M147.96 35.5336L150.548 33.9272L147.96 37.6059L145.312 33.9272L147.96 35.5336Z" fill="white"/>
</g>
<path d="M165.165 39.8033C162.621 39.8033 161.148 38.7825 161.148 36.8747V36.8412H162.337V36.9417C162.337 38.3307 163.157 38.816 165.182 38.816C167.039 38.816 167.675 38.3809 167.675 37.427C167.675 36.5568 167.156 36.2723 165.784 36.0547L163.575 35.7367C162.069 35.5359 161.115 34.9502 161.115 33.5779C161.115 32.122 162.504 31.2016 164.78 31.2016C167.156 31.2016 168.696 32.2057 168.696 34.1469V34.1804H167.508V34.0967C167.508 32.8583 166.855 32.1889 164.747 32.1889C163.006 32.1889 162.286 32.6073 162.286 33.5947C162.286 34.4481 162.722 34.7494 164.094 34.9502L166.119 35.2347C167.893 35.4857 168.847 36.0882 168.847 37.427C168.847 38.9833 167.307 39.8033 165.165 39.8033ZM175.478 39.636H173.688C172.048 39.636 170.993 38.9499 170.993 37.0086V32.3897H169.521V31.3689H170.993V29.3942H172.198V31.3689H175.478V32.3897H172.198V37.0755C172.198 38.2302 172.767 38.5482 173.972 38.5482H175.478V39.636ZM185.299 39.636H176.781V28.4236H185.299V29.5113H177.969V33.4608H185.048V34.5318H177.969V38.5482H185.299V39.636ZM191.95 39.636H190.762V29.5113H186.143V28.4236H196.552V29.5113H191.95V39.636ZM198.921 39.636H197.733V28.4236H198.921V33.444H206.134V28.4236H207.322V39.636H206.134V34.5318H198.921V39.636Z" fill="white"/>
<rect x="137.1" y="72.6096" width="73.1025" height="20.0205" rx="2.51025" fill="black"/>
<rect x="137.1" y="72.6096" width="73.1025" height="20.0205" rx="2.51025" stroke="white" stroke-width="0.313781" stroke-dasharray="2.51 2.51"/>
<g clip-path="url(#clip1_88_8505)">
<path d="M143.397 82.375V87.1503C143.427 87.5701 143.736 87.9108 144.157 87.9108H146.512V82.375H143.397Z" fill="white"/>
<path d="M150.312 82.375V87.9108H152.666C153.088 87.9108 153.427 87.5713 153.427 87.1503V82.375H150.312Z" fill="white"/>
<path d="M150.782 78.4515C151.236 78.4515 151.501 78.8007 151.494 79.0405C151.488 79.2968 151.316 79.4959 151.065 79.4959H149.508L149.863 79.0585C150.198 78.6521 150.45 78.4515 150.782 78.4515ZM145.865 78.4515C146.198 78.4515 146.449 78.6521 146.784 79.0585L147.139 79.4959H145.582C145.33 79.4959 145.159 79.2968 145.153 79.0405C145.146 78.8007 145.412 78.4515 145.865 78.4515ZM145.765 77.3403C144.863 77.3403 144.127 78.0802 144.028 78.9076C144.004 79.101 144.021 79.3047 144.078 79.5008H143.526C143.161 79.5008 142.867 79.808 142.867 80.1902V81.0438C142.867 81.4251 143.161 81.7321 143.526 81.7321H153.297C153.662 81.7321 153.957 81.4252 153.957 81.0438V80.1902C153.957 79.808 153.662 79.5008 153.297 79.5008H152.568C152.626 79.3047 152.643 79.101 152.619 78.9076C152.52 78.08 151.784 77.3403 150.782 77.3403C149.98 77.3403 149.412 77.8587 149.006 78.3506C148.284 79.2867 148.408 79.2854 147.642 78.3506C147.236 77.8586 146.667 77.3403 145.765 77.3403Z" fill="white"/>
<path d="M147.349 82.375H149.475V87.9108H147.349V82.375Z" fill="white"/>
</g>
<path d="M158.827 87.1201H157.936V78.7108H162.052C163.81 78.7108 165.002 79.6019 165.002 81.1457C165.002 82.564 163.96 83.4426 162.404 83.4803V83.543C162.956 83.6936 163.27 84.0576 163.559 84.5471L165.14 87.1201H164.111L162.617 84.6852C162.191 83.9823 161.751 83.6811 160.634 83.6811H158.827V87.1201ZM158.827 79.5266V82.9657H162.04C163.37 82.9657 164.073 82.4385 164.073 81.2461C164.073 80.0538 163.37 79.5266 162.04 79.5266H158.827ZM169.122 87.2456C167.126 87.2456 165.859 85.9905 165.859 84.02C165.859 82.1373 167.114 80.7943 169.109 80.7943C170.929 80.7943 172.222 81.8486 172.222 83.6936C172.222 83.9196 172.197 84.1078 172.159 84.271H166.7C166.75 85.6642 167.465 86.5051 169.109 86.5051C170.565 86.5051 171.243 85.9654 171.243 85.0617V84.9739H172.134V85.0617C172.134 86.3545 170.854 87.2456 169.122 87.2456ZM169.097 81.5348C167.49 81.5348 166.762 82.3632 166.7 83.7187H171.381C171.381 83.656 171.381 83.5932 171.381 83.5305C171.381 82.2251 170.553 81.5348 169.097 81.5348ZM175.864 87.1201H174.76L172.777 80.9198H173.693L175.011 85.0241L175.324 86.3419H175.4L175.826 84.9488L177.458 80.9198H178.6L180.219 84.9488L180.646 86.3294H180.721L181.023 85.0241L182.353 80.9198H183.269L181.261 87.1201H180.144L178.538 83.0661L178.048 81.6854H177.985L177.496 83.0661L175.864 87.1201ZM185.861 87.2456C184.643 87.2456 183.815 86.6683 183.815 85.6642C183.815 84.6475 184.656 84.2082 185.811 84.0827L188.76 83.7564V83.2794C188.76 82.0745 188.233 81.5976 186.877 81.5976C185.547 81.5976 184.844 82.0745 184.844 83.1665V83.2167H183.953V83.1665C183.953 81.8612 185.032 80.7943 186.94 80.7943C188.823 80.7943 189.626 81.8737 189.626 83.2418V87.1201H188.823V85.4508H188.76C188.396 86.593 187.304 87.2456 185.861 87.2456ZM184.706 85.6014C184.706 86.229 185.12 86.5553 186.062 86.5553C187.568 86.5553 188.76 85.8901 188.76 84.3965V84.3463L186.087 84.6475C185.158 84.7354 184.706 84.9613 184.706 85.6014ZM191.982 87.1201H191.091V80.9198H191.894V82.6142H191.957C192.145 81.6227 192.848 80.7943 194.141 80.7943C195.572 80.7943 196.199 81.8486 196.199 83.0033V83.6183H195.308V83.1414C195.308 82.0871 194.869 81.5725 193.79 81.5725C192.534 81.5725 191.982 82.3632 191.982 83.7564V87.1201ZM199.905 87.2456C197.922 87.2456 196.818 85.9026 196.818 84.02C196.818 82.1373 197.922 80.7943 199.83 80.7943C201.298 80.7943 202.215 81.585 202.491 82.6519H202.554V78.7108H203.445V87.1201H202.629V85.2876H202.579C202.277 86.5302 201.273 87.2456 199.905 87.2456ZM197.721 84.02C197.721 85.8148 198.675 86.4298 200.131 86.4298C201.587 86.4298 202.554 85.5889 202.554 84.1204V84.0074C202.554 82.4762 201.637 81.6227 200.106 81.6227C198.688 81.6227 197.721 82.2251 197.721 84.02Z" fill="white"/>
<rect x="147.738" y="117.257" width="51.8268" height="15.7654" rx="1.88268" fill="black"/>
<rect x="147.738" y="117.257" width="51.8268" height="15.7654" rx="1.88268" stroke="white" stroke-width="0.235336" stroke-dasharray="1.88 1.88"/>
<g clip-path="url(#clip2_88_8505)">
<path d="M159.544 123.963H158.956V123.178C158.956 121.665 157.724 120.433 156.21 120.433C154.697 120.433 153.465 121.665 153.465 123.178V123.963H152.877C152.768 123.963 152.68 124.051 152.68 124.159V129.062C152.68 129.494 153.032 129.846 153.465 129.846H158.956C159.389 129.846 159.74 129.494 159.74 129.062V124.159C159.74 124.051 159.653 123.963 159.544 123.963ZM156.798 128.06C156.804 128.115 156.786 128.171 156.749 128.212C156.712 128.254 156.658 128.277 156.603 128.277H155.818C155.763 128.277 155.709 128.254 155.672 128.212C155.635 128.171 155.617 128.115 155.623 128.06L155.747 126.947C155.546 126.801 155.426 126.57 155.426 126.316C155.426 125.884 155.778 125.532 156.21 125.532C156.643 125.532 156.995 125.884 156.995 126.316C156.995 126.57 156.875 126.801 156.674 126.947L156.798 128.06ZM157.779 123.963H154.642V123.178C154.642 122.313 155.345 121.61 156.21 121.61C157.076 121.61 157.779 122.313 157.779 123.178V123.963Z" fill="white" fill-opacity="0.2"/>
</g>
<path d="M168.033 128.14H163.364V121.833H164.033V127.528H168.033V128.14ZM171.066 128.234C169.551 128.234 168.543 127.227 168.543 125.815C168.543 124.403 169.551 123.395 171.066 123.395C172.591 123.395 173.598 124.403 173.598 125.815C173.598 127.227 172.591 128.234 171.066 128.234ZM171.066 127.631C172.346 127.631 172.939 126.944 172.939 125.815C172.939 124.694 172.346 123.998 171.066 123.998C169.786 123.998 169.202 124.694 169.202 125.815C169.202 126.944 169.786 127.631 171.066 127.631ZM176.709 128.234C175.222 128.234 174.252 127.227 174.252 125.815C174.252 124.403 175.222 123.395 176.709 123.395C178.008 123.395 179.025 124.167 179.025 125.287V125.363H178.366V125.306C178.366 124.478 177.764 124.007 176.7 124.007C175.457 124.007 174.921 124.676 174.921 125.815C174.921 126.954 175.457 127.622 176.7 127.622C177.764 127.622 178.366 127.151 178.366 126.323V126.266H179.025V126.342C179.025 127.462 178.008 128.234 176.709 128.234ZM180.589 128.14H179.921V121.833H180.589V125.438H182.152L183.705 123.489H184.496L182.698 125.711L184.486 128.14H183.705L182.142 126.05H180.589V128.14ZM187.354 128.234C185.858 128.234 184.907 127.292 184.907 125.815C184.907 124.403 185.848 123.395 187.345 123.395C188.71 123.395 189.679 124.186 189.679 125.57C189.679 125.739 189.661 125.88 189.632 126.003H185.537C185.575 127.048 186.112 127.678 187.345 127.678C188.437 127.678 188.945 127.274 188.945 126.596V126.53H189.613V126.596C189.613 127.565 188.653 128.234 187.354 128.234ZM187.335 123.951C186.131 123.951 185.585 124.572 185.537 125.589H189.049C189.049 125.542 189.049 125.494 189.049 125.447C189.049 124.468 188.427 123.951 187.335 123.951ZM192.571 128.234C191.084 128.234 190.255 127.227 190.255 125.815C190.255 124.403 191.084 123.395 192.514 123.395C193.616 123.395 194.303 123.988 194.51 124.788H194.557V121.833H195.225V128.14H194.614V126.765H194.576C194.35 127.697 193.597 128.234 192.571 128.234ZM190.933 125.815C190.933 127.161 191.648 127.622 192.74 127.622C193.832 127.622 194.557 126.991 194.557 125.89V125.805C194.557 124.657 193.87 124.017 192.722 124.017C191.658 124.017 190.933 124.468 190.933 125.815Z" fill="white" fill-opacity="0.2"/>
<rect x="147.738" y="157.649" width="51.8268" height="15.7654" rx="1.88268" fill="black"/>
<rect x="147.738" y="157.649" width="51.8268" height="15.7654" rx="1.88268" stroke="white" stroke-width="0.235336" stroke-dasharray="1.88 1.88"/>
<g clip-path="url(#clip3_88_8505)">
<path d="M159.544 164.355H158.956V163.57C158.956 162.056 157.724 160.825 156.21 160.825C154.697 160.825 153.465 162.056 153.465 163.57V164.355H152.877C152.768 164.355 152.68 164.442 152.68 164.551V169.454C152.68 169.886 153.032 170.238 153.465 170.238H158.956C159.389 170.238 159.74 169.886 159.74 169.454V164.551C159.74 164.442 159.653 164.355 159.544 164.355ZM156.798 168.451C156.804 168.507 156.786 168.562 156.749 168.604C156.712 168.645 156.658 168.669 156.603 168.669H155.818C155.763 168.669 155.709 168.645 155.672 168.604C155.635 168.562 155.617 168.507 155.623 168.451L155.747 167.339C155.546 167.193 155.426 166.962 155.426 166.708C155.426 166.275 155.778 165.924 156.21 165.924C156.643 165.924 156.995 166.275 156.995 166.708C156.995 166.962 156.875 167.193 156.674 167.339L156.798 168.451ZM157.779 164.355H154.642V163.57C154.642 162.705 155.345 162.001 156.21 162.001C157.076 162.001 157.779 162.705 157.779 163.57V164.355Z" fill="white" fill-opacity="0.2"/>
</g>
<path d="M168.033 168.531H163.364V162.224H164.033V167.919H168.033V168.531ZM171.066 168.625C169.551 168.625 168.543 167.618 168.543 166.206C168.543 164.794 169.551 163.787 171.066 163.787C172.591 163.787 173.598 164.794 173.598 166.206C173.598 167.618 172.591 168.625 171.066 168.625ZM171.066 168.023C172.346 168.023 172.939 167.336 172.939 166.206C172.939 165.086 172.346 164.389 171.066 164.389C169.786 164.389 169.202 165.086 169.202 166.206C169.202 167.336 169.786 168.023 171.066 168.023ZM176.709 168.625C175.222 168.625 174.252 167.618 174.252 166.206C174.252 164.794 175.222 163.787 176.709 163.787C178.008 163.787 179.025 164.559 179.025 165.679V165.754H178.366V165.698C178.366 164.869 177.764 164.399 176.7 164.399C175.457 164.399 174.921 165.067 174.921 166.206C174.921 167.345 175.457 168.014 176.7 168.014C177.764 168.014 178.366 167.543 178.366 166.714V166.658H179.025V166.733C179.025 167.853 178.008 168.625 176.709 168.625ZM180.589 168.531H179.921V162.224H180.589V165.83H182.152L183.705 163.881H184.496L182.698 166.103L184.486 168.531H183.705L182.142 166.441H180.589V168.531ZM187.354 168.625C185.858 168.625 184.907 167.684 184.907 166.206C184.907 164.794 185.848 163.787 187.345 163.787C188.71 163.787 189.679 164.578 189.679 165.961C189.679 166.131 189.661 166.272 189.632 166.394H185.537C185.575 167.439 186.112 168.07 187.345 168.07C188.437 168.07 188.945 167.665 188.945 166.987V166.922H189.613V166.987C189.613 167.957 188.653 168.625 187.354 168.625ZM187.335 164.342C186.131 164.342 185.585 164.964 185.537 165.98H189.049C189.049 165.933 189.049 165.886 189.049 165.839C189.049 164.86 188.427 164.342 187.335 164.342ZM192.571 168.625C191.084 168.625 190.255 167.618 190.255 166.206C190.255 164.794 191.084 163.787 192.514 163.787C193.616 163.787 194.303 164.38 194.51 165.18H194.557V162.224H195.225V168.531H194.614V167.157H194.576C194.35 168.089 193.597 168.625 192.571 168.625ZM190.933 166.206C190.933 167.552 191.648 168.014 192.74 168.014C193.832 168.014 194.557 167.383 194.557 166.281V166.197C194.557 165.048 193.87 164.408 192.722 164.408C191.658 164.408 190.933 164.86 190.933 166.206Z" fill="white" fill-opacity="0.2"/>
<rect x="122.003" y="20.2891" width="103.296" height="26.5993" rx="3.29967" fill="black"/>
<rect x="122.003" y="20.2891" width="103.296" height="26.5993" rx="3.29967" stroke="white" stroke-width="0.412459" stroke-dasharray="3.3 3.3"/>
<g clip-path="url(#clip4_88_8505)">
<path d="M146.071 27.0134C145.654 27.0134 145.271 27.1652 144.976 27.4161L138.522 23.6897L132.044 27.4296C131.746 27.1707 131.358 27.0134 130.934 27.0134C130 27.0134 129.24 27.7731 129.24 28.707C129.24 29.4513 129.723 30.0845 130.392 30.3111V37.7711L136.804 41.473C136.784 41.577 136.773 41.6843 136.773 41.794C136.773 42.7279 137.533 43.4877 138.466 43.4877C139.4 43.4877 140.16 42.7279 140.16 41.794C140.16 41.7045 140.153 41.6166 140.14 41.5307L146.651 37.771V30.298C147.3 30.0605 147.764 29.4369 147.764 28.707C147.764 27.7732 147.004 27.0134 146.071 27.0134ZM145.49 37.1003L139.575 40.5152C139.278 40.2572 138.89 40.1005 138.466 40.1005C138.064 40.1005 137.694 40.2419 137.403 40.4774L131.554 37.1003V30.2828C132.182 30.0349 132.628 29.4222 132.628 28.707C132.628 28.6182 132.621 28.531 132.607 28.4459L138.522 25.0312L144.401 28.4256C144.385 28.5172 144.377 28.6111 144.377 28.707C144.377 29.4369 144.841 30.0605 145.49 30.298V37.1003Z" fill="white"/>
<path d="M137.821 30.7835V36.6087C137.821 37.3812 138.516 37.9448 139.288 37.9448H139.638C139.836 37.9448 140.029 37.8879 140.194 37.781L140.472 37.6018C140.478 37.5978 140.475 37.5882 140.468 37.5881C139.918 37.5784 139.477 37.1298 139.477 36.5797V32.4861C139.477 31.7294 139.009 31.0515 138.302 30.7835H141.081C141.936 30.7835 142.63 30.0896 142.63 29.2336H136.093C135.237 29.2336 134.543 29.9275 134.543 30.7835H137.821Z" fill="white"/>
</g>
<path d="M156.27 38.7539C153.763 38.7539 152.311 37.7475 152.311 35.8666V35.8336H153.482V35.9326C153.482 37.302 154.291 37.7804 156.287 37.7804C158.118 37.7804 158.745 37.3515 158.745 36.4111C158.745 35.5532 158.234 35.2727 156.881 35.0582L154.703 34.7447C153.218 34.5468 152.278 33.9693 152.278 32.6165C152.278 31.1811 153.647 30.2737 155.891 30.2737C158.234 30.2737 159.752 31.2636 159.752 33.1774V33.2104H158.58V33.1279C158.58 31.907 157.937 31.2471 155.858 31.2471C154.142 31.2471 153.433 31.6595 153.433 32.633C153.433 33.4744 153.862 33.7713 155.215 33.9693L157.211 34.2498C158.96 34.4973 159.9 35.0912 159.9 36.4111C159.9 37.9454 158.382 38.7539 156.27 38.7539ZM166.438 38.5889H164.673C163.056 38.5889 162.016 37.9124 162.016 35.9986V31.4451H160.565V30.4387H162.016V28.4919H163.204V30.4387H166.438V31.4451H163.204V36.0646C163.204 37.203 163.765 37.5165 164.953 37.5165H166.438V38.5889ZM171.946 38.5889H170.197L166.997 27.535H168.3L170.494 35.1572L171.072 37.4175H171.171L171.831 35.1572L174.404 27.535H176.054L178.892 35.1572L179.634 37.4175H179.717L180.228 35.1572L182.159 27.535H183.446L180.591 38.5889H178.842L176.153 31.3956L175.279 28.8218H175.163L174.388 31.3956L171.946 38.5889ZM189.637 38.5889H188.466V28.6074H183.912V27.535H194.174V28.6074H189.637V38.5889ZM195.717 38.5889H194.431L199.43 27.535H201.063L206.078 38.5889H204.759L203.274 35.3387H197.202L195.717 38.5889ZM199.578 30.0922L197.681 34.2828H202.795L200.881 30.0922L200.271 28.6568H200.172L199.578 30.0922ZM212.312 38.7539C209.029 38.7539 206.735 36.5101 206.735 33.0619C206.735 29.6138 209.029 27.37 212.312 27.37C215.628 27.37 217.921 29.6138 217.921 33.0619C217.921 36.5101 215.628 38.7539 212.312 38.7539ZM212.312 37.6155C215.117 37.6155 216.684 36.0646 216.684 33.0619C216.684 30.0592 215.117 28.5084 212.312 28.5084C209.524 28.5084 207.973 30.0592 207.973 33.0619C207.973 36.0646 209.524 37.6155 212.312 37.6155Z" fill="white"/>
<rect x="137.1" y="71.8799" width="73.1025" height="20.0205" rx="2.51025" fill="black"/>
<rect x="137.1" y="71.8799" width="73.1025" height="20.0205" rx="2.51025" stroke="white" stroke-width="0.313781" stroke-dasharray="2.51 2.51"/>
<g clip-path="url(#clip5_88_8505)">
<path d="M143.397 81.6453V86.4206C143.427 86.8404 143.736 87.1811 144.157 87.1811H146.512V81.6453H143.397Z" fill="white"/>
<path d="M150.312 81.6453V87.1811H152.666C153.088 87.1811 153.427 86.8416 153.427 86.4206V81.6453H150.312Z" fill="white"/>
<path d="M150.782 77.722C151.236 77.722 151.501 78.0712 151.494 78.311C151.488 78.5673 151.316 78.7664 151.065 78.7664H149.508L149.863 78.329C150.198 77.9226 150.45 77.722 150.782 77.722ZM145.865 77.722C146.198 77.722 146.449 77.9226 146.784 78.329L147.139 78.7664H145.582C145.33 78.7664 145.159 78.5673 145.153 78.311C145.146 78.0712 145.412 77.722 145.865 77.722ZM145.765 76.6108C144.863 76.6108 144.127 77.3507 144.028 78.1781C144.004 78.3715 144.021 78.5752 144.078 78.7713H143.526C143.161 78.7713 142.867 79.0786 142.867 79.4607V80.3143C142.867 80.6956 143.161 81.0027 143.526 81.0027H153.297C153.662 81.0027 153.957 80.6957 153.957 80.3143V79.4607C153.957 79.0786 153.662 78.7713 153.297 78.7713H152.568C152.626 78.5752 152.643 78.3715 152.619 78.1781C152.52 77.3505 151.784 76.6108 150.782 76.6108C149.98 76.6108 149.412 77.1292 149.006 77.6211C148.284 78.5573 148.408 78.5559 147.642 77.6211C147.236 77.1291 146.667 76.6108 145.765 76.6108Z" fill="white"/>
<path d="M147.349 81.6453H149.475V87.1811H147.349V81.6453Z" fill="white"/>
</g>
<path d="M158.827 86.3904H157.936V77.9811H162.052C163.81 77.9811 165.002 78.8722 165.002 80.416C165.002 81.8343 163.96 82.7129 162.404 82.7505V82.8133C162.956 82.9639 163.27 83.3279 163.559 83.8174L165.14 86.3904H164.111L162.617 83.9554C162.191 83.2526 161.751 82.9513 160.634 82.9513H158.827V86.3904ZM158.827 78.7969V82.2359H162.04C163.37 82.2359 164.073 81.7088 164.073 80.5164C164.073 79.324 163.37 78.7969 162.04 78.7969H158.827ZM169.122 86.5159C167.126 86.5159 165.859 85.2608 165.859 83.2902C165.859 81.4075 167.114 80.0646 169.109 80.0646C170.929 80.0646 172.222 81.1189 172.222 82.9639C172.222 83.1898 172.197 83.3781 172.159 83.5413H166.7C166.75 84.9344 167.465 85.7754 169.109 85.7754C170.565 85.7754 171.243 85.2357 171.243 84.332V84.2441H172.134V84.332C172.134 85.6248 170.854 86.5159 169.122 86.5159ZM169.097 80.8051C167.49 80.8051 166.762 81.6335 166.7 82.989H171.381C171.381 82.9262 171.381 82.8635 171.381 82.8007C171.381 81.4954 170.553 80.8051 169.097 80.8051ZM175.864 86.3904H174.76L172.777 80.1901H173.693L175.011 84.2943L175.324 85.6122H175.4L175.826 84.219L177.458 80.1901H178.6L180.219 84.219L180.646 85.5997H180.721L181.023 84.2943L182.353 80.1901H183.269L181.261 86.3904H180.144L178.538 82.3363L178.048 80.9557H177.985L177.496 82.3363L175.864 86.3904ZM185.861 86.5159C184.643 86.5159 183.815 85.9385 183.815 84.9344C183.815 83.9178 184.656 83.4785 185.811 83.353L188.76 83.0267V82.5497C188.76 81.3448 188.233 80.8678 186.877 80.8678C185.547 80.8678 184.844 81.3448 184.844 82.4367V82.4869H183.953V82.4367C183.953 81.1314 185.032 80.0646 186.94 80.0646C188.823 80.0646 189.626 81.144 189.626 82.5121V86.3904H188.823V84.7211H188.76C188.396 85.8632 187.304 86.5159 185.861 86.5159ZM184.706 84.8717C184.706 85.4992 185.12 85.8256 186.062 85.8256C187.568 85.8256 188.76 85.1604 188.76 83.6668V83.6166L186.087 83.9178C185.158 84.0056 184.706 84.2316 184.706 84.8717ZM191.982 86.3904H191.091V80.1901H191.894V81.8845H191.957C192.145 80.8929 192.848 80.0646 194.141 80.0646C195.572 80.0646 196.199 81.1189 196.199 82.2736V82.8886H195.308V82.4116C195.308 81.3573 194.869 80.8427 193.79 80.8427C192.534 80.8427 191.982 81.6335 191.982 83.0267V86.3904ZM199.905 86.5159C197.922 86.5159 196.818 85.1729 196.818 83.2902C196.818 81.4075 197.922 80.0646 199.83 80.0646C201.298 80.0646 202.215 80.8553 202.491 81.9221H202.554V77.9811H203.445V86.3904H202.629V84.5579H202.579C202.277 85.8005 201.273 86.5159 199.905 86.5159ZM197.721 83.2902C197.721 85.0851 198.675 85.7001 200.131 85.7001C201.587 85.7001 202.554 84.8591 202.554 83.3906V83.2777C202.554 81.7464 201.637 80.8929 200.106 80.8929C198.688 80.8929 197.721 81.4954 197.721 83.2902Z" fill="white"/>
<rect x="147.738" y="116.892" width="51.8268" height="15.7654" rx="1.88268" fill="black"/>
<rect x="147.738" y="116.892" width="51.8268" height="15.7654" rx="1.88268" stroke="white" stroke-width="0.235336" stroke-dasharray="1.88 1.88"/>
<g clip-path="url(#clip6_88_8505)">
<path d="M159.544 123.598H158.956V122.813C158.956 121.3 157.724 120.068 156.21 120.068C154.697 120.068 153.465 121.3 153.465 122.813V123.598H152.877C152.768 123.598 152.68 123.686 152.68 123.794V128.697C152.68 129.129 153.032 129.481 153.465 129.481H158.956C159.389 129.481 159.74 129.129 159.74 128.697V123.794C159.74 123.686 159.653 123.598 159.544 123.598ZM156.798 127.695C156.804 127.75 156.786 127.806 156.749 127.847C156.712 127.889 156.658 127.912 156.603 127.912H155.818C155.763 127.912 155.709 127.889 155.672 127.847C155.635 127.806 155.617 127.75 155.623 127.695L155.747 126.582C155.546 126.436 155.426 126.205 155.426 125.951C155.426 125.519 155.778 125.167 156.21 125.167C156.643 125.167 156.995 125.519 156.995 125.951C156.995 126.205 156.875 126.436 156.674 126.582L156.798 127.695ZM157.779 123.598H154.642V122.813C154.642 121.948 155.345 121.245 156.21 121.245C157.076 121.245 157.779 121.948 157.779 122.813V123.598Z" fill="white" fill-opacity="0.2"/>
</g>
<path d="M168.033 127.774H163.364V121.467H164.033V127.163H168.033V127.774ZM171.066 127.869C169.551 127.869 168.543 126.861 168.543 125.449C168.543 124.037 169.551 123.03 171.066 123.03C172.591 123.03 173.598 124.037 173.598 125.449C173.598 126.861 172.591 127.869 171.066 127.869ZM171.066 127.266C172.346 127.266 172.939 126.579 172.939 125.449C172.939 124.329 172.346 123.633 171.066 123.633C169.786 123.633 169.202 124.329 169.202 125.449C169.202 126.579 169.786 127.266 171.066 127.266ZM176.709 127.869C175.222 127.869 174.252 126.861 174.252 125.449C174.252 124.037 175.222 123.03 176.709 123.03C178.008 123.03 179.025 123.802 179.025 124.922V124.997H178.366V124.941C178.366 124.113 177.764 123.642 176.7 123.642C175.457 123.642 174.921 124.31 174.921 125.449C174.921 126.588 175.457 127.257 176.7 127.257C177.764 127.257 178.366 126.786 178.366 125.958V125.901H179.025V125.976C179.025 127.097 178.008 127.869 176.709 127.869ZM180.589 127.774H179.921V121.467H180.589V125.073H182.152L183.705 123.124H184.496L182.698 125.346L184.486 127.774H183.705L182.142 125.685H180.589V127.774ZM187.354 127.869C185.858 127.869 184.907 126.927 184.907 125.449C184.907 124.037 185.848 123.03 187.345 123.03C188.71 123.03 189.679 123.821 189.679 125.205C189.679 125.374 189.661 125.515 189.632 125.638H185.537C185.575 126.682 186.112 127.313 187.345 127.313C188.437 127.313 188.945 126.908 188.945 126.231V126.165H189.613V126.231C189.613 127.2 188.653 127.869 187.354 127.869ZM187.335 123.585C186.131 123.585 185.585 124.207 185.537 125.223H189.049C189.049 125.176 189.049 125.129 189.049 125.082C189.049 124.103 188.427 123.585 187.335 123.585ZM192.571 127.869C191.084 127.869 190.255 126.861 190.255 125.449C190.255 124.037 191.084 123.03 192.514 123.03C193.616 123.03 194.303 123.623 194.51 124.423H194.557V121.467H195.225V127.774H194.614V126.4H194.576C194.35 127.332 193.597 127.869 192.571 127.869ZM190.933 125.449C190.933 126.795 191.648 127.257 192.74 127.257C193.832 127.257 194.557 126.626 194.557 125.525V125.44C194.557 124.291 193.87 123.651 192.722 123.651C191.658 123.651 190.933 124.103 190.933 125.449Z" fill="white" fill-opacity="0.2"/>
<rect x="147.738" y="157.649" width="51.8268" height="15.7654" rx="1.88268" fill="black"/>
<rect x="147.738" y="157.649" width="51.8268" height="15.7654" rx="1.88268" stroke="white" stroke-width="0.235336" stroke-dasharray="1.88 1.88"/>
<g clip-path="url(#clip7_88_8505)">
<path d="M159.544 164.355H158.956V163.57C158.956 162.056 157.724 160.825 156.21 160.825C154.697 160.825 153.465 162.056 153.465 163.57V164.355H152.877C152.768 164.355 152.68 164.442 152.68 164.551V169.454C152.68 169.886 153.032 170.238 153.465 170.238H158.956C159.389 170.238 159.74 169.886 159.74 169.454V164.551C159.74 164.442 159.653 164.355 159.544 164.355ZM156.798 168.451C156.804 168.507 156.786 168.562 156.749 168.604C156.712 168.645 156.658 168.669 156.603 168.669H155.818C155.763 168.669 155.709 168.645 155.672 168.604C155.635 168.562 155.617 168.507 155.623 168.451L155.747 167.339C155.546 167.193 155.426 166.962 155.426 166.708C155.426 166.275 155.778 165.924 156.21 165.924C156.643 165.924 156.995 166.275 156.995 166.708C156.995 166.962 156.875 167.193 156.674 167.339L156.798 168.451ZM157.779 164.355H154.642V163.57C154.642 162.705 155.345 162.001 156.21 162.001C157.076 162.001 157.779 162.705 157.779 163.57V164.355Z" fill="white" fill-opacity="0.2"/>
</g>
<path d="M168.033 168.531H163.364V162.224H164.033V167.919H168.033V168.531ZM171.066 168.625C169.551 168.625 168.543 167.618 168.543 166.206C168.543 164.794 169.551 163.787 171.066 163.787C172.591 163.787 173.598 164.794 173.598 166.206C173.598 167.618 172.591 168.625 171.066 168.625ZM171.066 168.023C172.346 168.023 172.939 167.336 172.939 166.206C172.939 165.086 172.346 164.389 171.066 164.389C169.786 164.389 169.202 165.086 169.202 166.206C169.202 167.336 169.786 168.023 171.066 168.023ZM176.709 168.625C175.222 168.625 174.252 167.618 174.252 166.206C174.252 164.794 175.222 163.787 176.709 163.787C178.008 163.787 179.025 164.559 179.025 165.679V165.754H178.366V165.698C178.366 164.869 177.764 164.399 176.7 164.399C175.457 164.399 174.921 165.067 174.921 166.206C174.921 167.345 175.457 168.014 176.7 168.014C177.764 168.014 178.366 167.543 178.366 166.714V166.658H179.025V166.733C179.025 167.853 178.008 168.625 176.709 168.625ZM180.589 168.531H179.921V162.224H180.589V165.83H182.152L183.705 163.881H184.496L182.698 166.103L184.486 168.531H183.705L182.142 166.441H180.589V168.531ZM187.354 168.625C185.858 168.625 184.907 167.684 184.907 166.206C184.907 164.794 185.848 163.787 187.345 163.787C188.71 163.787 189.679 164.578 189.679 165.961C189.679 166.131 189.661 166.272 189.632 166.394H185.537C185.575 167.439 186.112 168.07 187.345 168.07C188.437 168.07 188.945 167.665 188.945 166.987V166.922H189.613V166.987C189.613 167.957 188.653 168.625 187.354 168.625ZM187.335 164.342C186.131 164.342 185.585 164.964 185.537 165.98H189.049C189.049 165.933 189.049 165.886 189.049 165.839C189.049 164.86 188.427 164.342 187.335 164.342ZM192.571 168.625C191.084 168.625 190.255 167.618 190.255 166.206C190.255 164.794 191.084 163.787 192.514 163.787C193.616 163.787 194.303 164.38 194.51 165.18H194.557V162.224H195.225V168.531H194.614V167.157H194.576C194.35 168.089 193.597 168.625 192.571 168.625ZM190.933 166.206C190.933 167.552 191.648 168.014 192.74 168.014C193.832 168.014 194.557 167.383 194.557 166.281V166.197C194.557 165.048 193.87 164.408 192.722 164.408C191.658 164.408 190.933 164.86 190.933 166.206Z" fill="white" fill-opacity="0.2"/>
<defs>
<clipPath id="clip0_88_8505">
<rect width="18.4085" height="18.4085" fill="white" transform="translate(138.774 24.9319)"/>
</clipPath>
<clipPath id="clip1_88_8505">
<rect width="12.5512" height="12.5512" fill="white" transform="translate(142.121 76.3442)"/>
</clipPath>
<clipPath id="clip2_88_8505">
<rect width="9.41342" height="9.41342" fill="white" transform="translate(151.504 120.433)"/>
</clipPath>
<clipPath id="clip3_88_8505">
<rect width="9.41342" height="9.41342" fill="white" transform="translate(151.504 160.825)"/>
</clipPath>
<clipPath id="clip4_88_8505">
<rect width="19.798" height="19.798" fill="white" transform="translate(128.603 23.6897)"/>
</clipPath>
<clipPath id="clip5_88_8505">
<rect width="12.5512" height="12.5512" fill="white" transform="translate(142.121 75.6147)"/>
</clipPath>
<clipPath id="clip6_88_8505">
<rect width="9.41342" height="9.41342" fill="white" transform="translate(151.504 120.068)"/>
</clipPath>
<clipPath id="clip7_88_8505">
<rect width="9.41342" height="9.41342" fill="white" transform="translate(151.504 160.825)"/>
</clipPath>
</defs>
</svg>
