<svg width="345" height="195" viewBox="0 0 345 195" fill="none" xmlns="http://www.w3.org/2000/svg">
<rect x="1.20959" y="1.40283" width="342.5" height="192.5" rx="6.875" fill="#202020"/>
<rect x="1.20959" y="1.40283" width="342.5" height="192.5" rx="6.875" stroke="white" stroke-width="1.25"/>
<path d="M255.585 154.528C255.585 113.035 255.585 89.771 255.585 48.2778" stroke="white" stroke-width="0.836749"/>
<path d="M89.3347 93.5391L89.3347 159.789" stroke="white" stroke-width="0.3125" stroke-dasharray="1.25 1.25"/>
<path d="M89.3347 92.2891V48.5391" stroke="white" stroke-width="0.836749"/>
<path d="M255.585 93.5391L255.585 159.789" stroke="white" stroke-width="0.3125" stroke-dasharray="1.25 1.25"/>
<rect x="36.8347" y="21.0391" width="103.296" height="26.5993" rx="3.29967" fill="black"/>
<rect x="36.8347" y="21.0391" width="103.296" height="26.5993" rx="3.29967" stroke="white" stroke-width="0.412459" stroke-dasharray="3.3 3.3"/>
<g clip-path="url(#clip0_140_9342)">
<path d="M60.9016 27.7634C60.4846 27.7634 60.1025 27.9152 59.807 28.1661L53.3527 24.4397L46.875 28.1796C46.5775 27.9207 46.1894 27.7634 45.765 27.7634C44.831 27.7634 44.0713 28.5231 44.0713 29.457C44.0713 30.2013 44.5541 30.8345 45.2227 31.0611V38.5211L51.6348 42.223C51.6147 42.327 51.6039 42.4343 51.6039 42.544C51.6039 43.4779 52.3636 44.2377 53.2975 44.2377C54.2314 44.2377 54.9911 43.4779 54.9911 42.544C54.9911 42.4545 54.984 42.3666 54.9706 42.2807L61.4826 38.521V31.048C62.1312 30.8105 62.5953 30.1869 62.5953 29.457C62.5953 28.5232 61.8355 27.7634 60.9016 27.7634ZM60.3207 37.8503L54.4059 41.2652C54.1086 41.0072 53.7211 40.8505 53.2975 40.8505C52.8949 40.8505 52.5248 40.9919 52.2338 41.2274L46.3846 37.8503V31.0328C47.0128 30.7849 47.4586 30.1722 47.4586 29.457C47.4586 29.3682 47.4516 29.281 47.4384 29.1959L53.3527 25.7812L59.2318 29.1756C59.2164 29.2672 59.208 29.3611 59.208 29.457C59.208 30.1869 59.6721 30.8105 60.3207 31.048V37.8503Z" fill="white"/>
<path d="M52.6513 31.5335V37.3587C52.6513 38.1312 53.3464 38.6948 54.1189 38.6948H54.469C54.6663 38.6948 54.8594 38.6379 55.0252 38.531L55.3028 38.3518C55.309 38.3478 55.3063 38.3382 55.2989 38.3381C54.7489 38.3284 54.3081 37.8798 54.3081 37.3297V33.2361C54.3081 32.4794 53.84 31.8015 53.1323 31.5335H55.9113C56.7673 31.5335 57.4612 30.8396 57.4612 29.9836H50.9234C50.0674 29.9836 49.3735 30.6775 49.3735 31.5335H52.6513Z" fill="white"/>
</g>
<path d="M71.1019 39.5039C68.5942 39.5039 67.1423 38.4975 67.1423 36.6166V36.5836H68.3137V36.6826C68.3137 38.052 69.1221 38.5304 71.1184 38.5304C72.9497 38.5304 73.5767 38.1015 73.5767 37.1611C73.5767 36.3032 73.0652 36.0227 71.7124 35.8082L69.5346 35.4947C68.0497 35.2968 67.1093 34.7193 67.1093 33.3665C67.1093 31.9311 68.4787 31.0237 70.7224 31.0237C73.0652 31.0237 74.5831 32.0136 74.5831 33.9274V33.9604H73.4117V33.8779C73.4117 32.657 72.7682 31.9971 70.6895 31.9971C68.9736 31.9971 68.2642 32.4095 68.2642 33.383C68.2642 34.2244 68.6931 34.5213 70.046 34.7193L72.0423 34.9998C73.7911 35.2473 74.7316 35.8412 74.7316 37.1611C74.7316 38.6954 73.2137 39.5039 71.1019 39.5039ZM81.2694 39.3389H79.5041C77.8873 39.3389 76.8479 38.6624 76.8479 36.7486V32.1951H75.396V31.1887H76.8479V29.2419H78.0357V31.1887H81.2694V32.1951H78.0357V36.8146C78.0357 37.953 78.5967 38.2665 79.7846 38.2665H81.2694V39.3389ZM86.7776 39.3389H85.0287L81.828 28.285H83.1314L85.3257 35.9072L85.9031 38.1675H86.0021L86.6621 35.9072L89.2358 28.285H90.8857L93.7234 35.9072L94.4658 38.1675H94.5483L95.0597 35.9072L96.9901 28.285H98.2769L95.4227 39.3389H93.6739L90.9846 32.1456L90.1102 29.5718H89.9947L89.2193 32.1456L86.7776 39.3389ZM104.468 39.3389H103.297V29.3574H98.7434V28.285H109.005V29.3574H104.468V39.3389ZM110.549 39.3389H109.262L114.261 28.285H115.894L120.91 39.3389H119.59L118.105 36.0887H112.034L110.549 39.3389ZM114.409 30.8422L112.512 35.0328H117.627L115.713 30.8422L115.102 29.4068H115.003L114.409 30.8422ZM127.143 39.5039C123.86 39.5039 121.567 37.2601 121.567 33.8119C121.567 30.3638 123.86 28.12 127.143 28.12C130.459 28.12 132.753 30.3638 132.753 33.8119C132.753 37.2601 130.459 39.5039 127.143 39.5039ZM127.143 38.3655C129.948 38.3655 131.515 36.8146 131.515 33.8119C131.515 30.8092 129.948 29.2584 127.143 29.2584C124.355 29.2584 122.804 30.8092 122.804 33.8119C122.804 36.8146 124.355 38.3655 127.143 38.3655Z" fill="white"/>
<rect x="51.9316" y="72.6299" width="73.1025" height="20.0205" rx="2.51025" fill="black"/>
<rect x="51.9316" y="72.6299" width="73.1025" height="20.0205" rx="2.51025" stroke="white" stroke-width="0.313781" stroke-dasharray="2.51 2.51"/>
<path d="M58.2283 82.3953V87.1706C58.2581 87.5904 58.5676 87.9311 58.9887 87.9311H61.3435V82.3953H58.2283Z" fill="white"/>
<path d="M65.1429 82.3953V87.9311H67.4978C67.9191 87.9311 68.2582 87.5916 68.2582 87.1706V82.3953H65.1429Z" fill="white"/>
<path d="M65.613 78.472C66.067 78.472 66.3321 78.8212 66.3255 79.061C66.319 79.3173 66.1476 79.5164 65.8963 79.5164H64.339L64.6942 79.079C65.029 78.6726 65.2811 78.472 65.613 78.472ZM60.6965 78.472C61.0292 78.472 61.2805 78.6726 61.6153 79.079L61.9705 79.5164H60.4132C60.1618 79.5164 59.9905 79.3173 59.984 79.061C59.9774 78.8212 60.2434 78.472 60.6965 78.472ZM60.5962 77.3608C59.6942 77.3608 58.9584 78.1007 58.8588 78.9281C58.8357 79.1215 58.8523 79.3252 58.9089 79.5213H58.3577C57.9924 79.5213 57.6982 79.8286 57.6982 80.2107V81.0643C57.6982 81.4456 57.9924 81.7527 58.3577 81.7527H68.1283C68.4936 81.7527 68.7885 81.4457 68.7885 81.0643V80.2107C68.7885 79.8286 68.4936 79.5213 68.1283 79.5213H67.3998C67.4571 79.3252 67.4738 79.1215 67.4505 78.9281C67.351 78.1005 66.6153 77.3608 65.6129 77.3608C64.811 77.3608 64.243 77.8792 63.8377 78.3711C63.1149 79.3073 63.2392 79.3059 62.4729 78.3711C62.067 77.8791 61.4983 77.3608 60.5962 77.3608Z" fill="white"/>
<path d="M62.1803 82.3953H64.3065V87.9311H62.1803V82.3953Z" fill="white"/>
<path d="M73.6579 87.1404H72.7667V78.7311H76.8835C78.6407 78.7311 79.8331 79.6222 79.8331 81.166C79.8331 82.5843 78.7913 83.4629 77.235 83.5005V83.5633C77.7872 83.7139 78.101 84.0779 78.3897 84.5674L79.9712 87.1404H78.942L77.4484 84.7054C77.0216 84.0026 76.5823 83.7013 75.4653 83.7013H73.6579V87.1404ZM73.6579 79.5469V82.9859H76.871C78.2014 82.9859 78.9043 82.4588 78.9043 81.2664C78.9043 80.074 78.2014 79.5469 76.871 79.5469H73.6579ZM83.953 87.2659C81.9574 87.2659 80.6897 86.0108 80.6897 84.0402C80.6897 82.1575 81.9448 80.8146 83.9405 80.8146C85.7604 80.8146 87.0532 81.8689 87.0532 83.7139C87.0532 83.9398 87.0281 84.1281 86.9904 84.2913H81.5306C81.5808 85.6844 82.2963 86.5254 83.9405 86.5254C85.3964 86.5254 86.0742 85.9857 86.0742 85.082V84.9941H86.9653V85.082C86.9653 86.3748 85.6851 87.2659 83.953 87.2659ZM83.9279 81.5551C82.3214 81.5551 81.5934 82.3835 81.5306 83.739H86.2123C86.2123 83.6762 86.2123 83.6135 86.2123 83.5507C86.2123 82.2454 85.3839 81.5551 83.9279 81.5551ZM90.6952 87.1404H89.5907L87.6076 80.9401H88.5238L89.8417 85.0443L90.1555 86.3622H90.2308L90.6575 84.969L92.2892 80.9401H93.4314L95.0505 84.969L95.4772 86.3497H95.5525L95.8538 85.0443L97.1842 80.9401H98.1004L96.0922 87.1404H94.9752L93.3686 83.0863L92.8791 81.7057H92.8164L92.3269 83.0863L90.6952 87.1404ZM100.692 87.2659C99.4744 87.2659 98.646 86.6885 98.646 85.6844C98.646 84.6678 99.4869 84.2285 100.642 84.103L103.591 83.7767V83.2997C103.591 82.0948 103.064 81.6178 101.709 81.6178C100.378 81.6178 99.6752 82.0948 99.6752 83.1867V83.2369H98.7841V83.1867C98.7841 81.8814 99.8635 80.8146 101.771 80.8146C103.654 80.8146 104.457 81.894 104.457 83.2621V87.1404H103.654V85.4711H103.591C103.227 86.6132 102.135 87.2659 100.692 87.2659ZM99.5371 85.6217C99.5371 86.2492 99.9513 86.5756 100.893 86.5756C102.399 86.5756 103.591 85.9104 103.591 84.4168V84.3666L100.918 84.6678C99.989 84.7556 99.5371 84.9816 99.5371 85.6217ZM106.813 87.1404H105.922V80.9401H106.725V82.6345H106.788C106.976 81.6429 107.679 80.8146 108.972 80.8146C110.403 80.8146 111.03 81.8689 111.03 83.0236V83.6386H110.139V83.1616C110.139 82.1073 109.7 81.5927 108.621 81.5927C107.365 81.5927 106.813 82.3835 106.813 83.7767V87.1404ZM114.736 87.2659C112.753 87.2659 111.649 85.9229 111.649 84.0402C111.649 82.1575 112.753 80.8146 114.661 80.8146C116.129 80.8146 117.046 81.6053 117.322 82.6721H117.385V78.7311H118.276V87.1404H117.46V85.3079H117.41C117.108 86.5505 116.104 87.2659 114.736 87.2659ZM112.552 84.0402C112.552 85.8351 113.506 86.4501 114.962 86.4501C116.418 86.4501 117.385 85.6091 117.385 84.1406V84.0277C117.385 82.4964 116.468 81.6429 114.937 81.6429C113.519 81.6429 112.552 82.2454 112.552 84.0402Z" fill="white"/>
<rect x="62.5695" y="117.642" width="51.8268" height="15.7654" rx="1.88268" fill="black"/>
<rect x="62.5695" y="117.642" width="51.8268" height="15.7654" rx="1.88268" stroke="white" stroke-width="0.235336" stroke-dasharray="1.88 1.88"/>
<g clip-path="url(#clip1_140_9342)">
<path d="M74.3755 124.348H73.7872V123.563C73.7872 122.05 72.5556 120.818 71.0416 120.818C69.5277 120.818 68.2961 122.05 68.2961 123.563V124.348H67.7077C67.5993 124.348 67.5116 124.436 67.5116 124.544V129.447C67.5116 129.879 67.8634 130.231 68.2961 130.231H73.7872C74.2199 130.231 74.5717 129.879 74.5717 129.447V124.544C74.5717 124.436 74.4839 124.348 74.3755 124.348ZM71.6288 128.445C71.635 128.5 71.6172 128.556 71.58 128.597C71.5428 128.639 71.4896 128.662 71.4339 128.662H70.6494C70.5937 128.662 70.5404 128.639 70.5033 128.597C70.4661 128.556 70.4483 128.5 70.4544 128.445L70.5782 127.332C70.3773 127.186 70.2572 126.955 70.2572 126.701C70.2572 126.269 70.609 125.917 71.0416 125.917C71.4743 125.917 71.8261 126.269 71.8261 126.701C71.8261 126.955 71.706 127.186 71.5051 127.332L71.6288 128.445ZM72.6105 124.348H69.4727V123.563C69.4727 122.698 70.1766 121.995 71.0416 121.995C71.9067 121.995 72.6105 122.698 72.6105 123.563V124.348Z" fill="white" fill-opacity="0.2"/>
</g>
<path d="M82.8647 128.524H78.1957V122.217H78.864V127.913H82.8647V128.524ZM85.8975 128.619C84.3819 128.619 83.3747 127.611 83.3747 126.199C83.3747 124.787 84.3819 123.78 85.8975 123.78C87.4224 123.78 88.4297 124.787 88.4297 126.199C88.4297 127.611 87.4224 128.619 85.8975 128.619ZM85.8975 128.016C87.1777 128.016 87.7707 127.329 87.7707 126.199C87.7707 125.079 87.1777 124.383 85.8975 124.383C84.6172 124.383 84.0336 125.079 84.0336 126.199C84.0336 127.329 84.6172 128.016 85.8975 128.016ZM91.5405 128.619C90.0532 128.619 89.0836 127.611 89.0836 126.199C89.0836 124.787 90.0532 123.78 91.5405 123.78C92.8396 123.78 93.8562 124.552 93.8562 125.672V125.747H93.1973V125.691C93.1973 124.863 92.5948 124.392 91.5311 124.392C90.2885 124.392 89.752 125.06 89.752 126.199C89.752 127.338 90.2885 128.007 91.5311 128.007C92.5948 128.007 93.1973 127.536 93.1973 126.708V126.651H93.8562V126.726C93.8562 127.847 92.8396 128.619 91.5405 128.619ZM95.4202 128.524H94.7519V122.217H95.4202V125.823H96.9829L98.5361 123.874H99.3268L97.5288 126.096L99.3174 128.524H98.5361L96.9735 126.435H95.4202V128.524ZM102.186 128.619C100.689 128.619 99.7381 127.677 99.7381 126.199C99.7381 124.787 100.679 123.78 102.176 123.78C103.541 123.78 104.511 124.571 104.511 125.955C104.511 126.124 104.492 126.265 104.464 126.388H100.369C100.406 127.432 100.943 128.063 102.176 128.063C103.268 128.063 103.776 127.658 103.776 126.981V126.915H104.445V126.981C104.445 127.95 103.485 128.619 102.186 128.619ZM102.167 124.335C100.962 124.335 100.416 124.957 100.369 125.973H103.88C103.88 125.926 103.88 125.879 103.88 125.832C103.88 124.853 103.259 124.335 102.167 124.335ZM107.402 128.619C105.915 128.619 105.087 127.611 105.087 126.199C105.087 124.787 105.915 123.78 107.346 123.78C108.447 123.78 109.134 124.373 109.341 125.173H109.388V122.217H110.057V128.524H109.445V127.15H109.407C109.181 128.082 108.428 128.619 107.402 128.619ZM105.764 126.199C105.764 127.545 106.48 128.007 107.572 128.007C108.664 128.007 109.388 127.376 109.388 126.275V126.19C109.388 125.041 108.701 124.401 107.553 124.401C106.489 124.401 105.764 124.853 105.764 126.199Z" fill="white" fill-opacity="0.2"/>
<rect x="62.5695" y="158.399" width="51.8268" height="15.7654" rx="1.88268" fill="black"/>
<rect x="62.5695" y="158.399" width="51.8268" height="15.7654" rx="1.88268" stroke="white" stroke-width="0.235336" stroke-dasharray="1.88 1.88"/>
<g clip-path="url(#clip2_140_9342)">
<path d="M74.3755 165.105H73.7872V164.32C73.7872 162.806 72.5556 161.575 71.0416 161.575C69.5277 161.575 68.2961 162.806 68.2961 164.32V165.105H67.7077C67.5993 165.105 67.5116 165.192 67.5116 165.301V170.204C67.5116 170.636 67.8634 170.988 68.2961 170.988H73.7872C74.2199 170.988 74.5717 170.636 74.5717 170.204V165.301C74.5717 165.192 74.4839 165.105 74.3755 165.105ZM71.6288 169.201C71.635 169.257 71.6172 169.312 71.58 169.354C71.5428 169.395 71.4896 169.419 71.4339 169.419H70.6494C70.5937 169.419 70.5404 169.395 70.5033 169.354C70.4661 169.312 70.4483 169.257 70.4544 169.201L70.5782 168.089C70.3773 167.943 70.2572 167.712 70.2572 167.458C70.2572 167.025 70.609 166.674 71.0416 166.674C71.4743 166.674 71.8261 167.025 71.8261 167.458C71.8261 167.712 71.706 167.943 71.5051 168.089L71.6288 169.201ZM72.6105 165.105H69.4727V164.32C69.4727 163.455 70.1766 162.751 71.0416 162.751C71.9067 162.751 72.6105 163.455 72.6105 164.32V165.105Z" fill="white" fill-opacity="0.2"/>
</g>
<path d="M82.8647 169.281H78.1957V162.974H78.864V168.669H82.8647V169.281ZM85.8975 169.375C84.3819 169.375 83.3747 168.368 83.3747 166.956C83.3747 165.544 84.3819 164.537 85.8975 164.537C87.4224 164.537 88.4297 165.544 88.4297 166.956C88.4297 168.368 87.4224 169.375 85.8975 169.375ZM85.8975 168.773C87.1777 168.773 87.7707 168.086 87.7707 166.956C87.7707 165.836 87.1777 165.139 85.8975 165.139C84.6172 165.139 84.0336 165.836 84.0336 166.956C84.0336 168.086 84.6172 168.773 85.8975 168.773ZM91.5405 169.375C90.0532 169.375 89.0836 168.368 89.0836 166.956C89.0836 165.544 90.0532 164.537 91.5405 164.537C92.8396 164.537 93.8562 165.309 93.8562 166.429V166.504H93.1973V166.448C93.1973 165.619 92.5948 165.149 91.5311 165.149C90.2885 165.149 89.752 165.817 89.752 166.956C89.752 168.095 90.2885 168.764 91.5311 168.764C92.5948 168.764 93.1973 168.293 93.1973 167.464V167.408H93.8562V167.483C93.8562 168.603 92.8396 169.375 91.5405 169.375ZM95.4202 169.281H94.7519V162.974H95.4202V166.58H96.9829L98.5361 164.631H99.3268L97.5288 166.853L99.3174 169.281H98.5361L96.9735 167.191H95.4202V169.281ZM102.186 169.375C100.689 169.375 99.7381 168.434 99.7381 166.956C99.7381 165.544 100.679 164.537 102.176 164.537C103.541 164.537 104.511 165.328 104.511 166.711C104.511 166.881 104.492 167.022 104.464 167.144H100.369C100.406 168.189 100.943 168.82 102.176 168.82C103.268 168.82 103.776 168.415 103.776 167.737V167.672H104.445V167.737C104.445 168.707 103.485 169.375 102.186 169.375ZM102.167 165.092C100.962 165.092 100.416 165.714 100.369 166.73H103.88C103.88 166.683 103.88 166.636 103.88 166.589C103.88 165.61 103.259 165.092 102.167 165.092ZM107.402 169.375C105.915 169.375 105.087 168.368 105.087 166.956C105.087 165.544 105.915 164.537 107.346 164.537C108.447 164.537 109.134 165.13 109.341 165.93H109.388V162.974H110.057V169.281H109.445V167.907H109.407C109.181 168.839 108.428 169.375 107.402 169.375ZM105.764 166.956C105.764 168.302 106.48 168.764 107.572 168.764C108.664 168.764 109.388 168.133 109.388 167.031V166.947C109.388 165.798 108.701 165.158 107.553 165.158C106.489 165.158 105.764 165.61 105.764 166.956Z" fill="white" fill-opacity="0.2"/>
<rect x="203.131" y="21.0391" width="103.296" height="26.5993" rx="3.29967" fill="black"/>
<rect x="203.131" y="21.0391" width="103.296" height="26.5993" rx="3.29967" stroke="white" stroke-width="0.412459" stroke-dasharray="3.3 3.3"/>
<g clip-path="url(#clip3_140_9342)">
<path d="M227.198 27.7634C226.781 27.7634 226.399 27.9152 226.103 28.1661L219.649 24.4397L213.171 28.1796C212.874 27.9207 212.486 27.7634 212.061 27.7634C211.127 27.7634 210.368 28.5231 210.368 29.457C210.368 30.2013 210.85 30.8345 211.519 31.0611V38.5211L217.931 42.223C217.911 42.327 217.9 42.4343 217.9 42.544C217.9 43.4779 218.66 44.2377 219.594 44.2377C220.528 44.2377 221.288 43.4779 221.288 42.544C221.288 42.4545 221.28 42.3666 221.267 42.2807L227.779 38.521V31.048C228.428 30.8105 228.892 30.1869 228.892 29.457C228.892 28.5232 228.132 27.7634 227.198 27.7634ZM226.617 37.8503L220.702 41.2652C220.405 41.0072 220.018 40.8505 219.594 40.8505C219.191 40.8505 218.821 40.9919 218.53 41.2274L212.681 37.8503V31.0328C213.309 30.7849 213.755 30.1722 213.755 29.457C213.755 29.3682 213.748 29.281 213.735 29.1959L219.649 25.7812L225.528 29.1756C225.513 29.2672 225.504 29.3611 225.504 29.457C225.504 30.1869 225.968 30.8105 226.617 31.048V37.8503Z" fill="white"/>
<path d="M218.948 31.5335V37.3587C218.948 38.1312 219.643 38.6948 220.415 38.6948H220.765C220.963 38.6948 221.156 38.6379 221.322 38.531L221.599 38.3518C221.605 38.3478 221.603 38.3382 221.595 38.3381C221.045 38.3284 220.604 37.8798 220.604 37.3297V33.2361C220.604 32.4794 220.136 31.8015 219.429 31.5335H222.208C223.064 31.5335 223.758 30.8396 223.758 29.9836H217.22C216.364 29.9836 215.67 30.6775 215.67 31.5335H218.948Z" fill="white"/>
</g>
<path d="M237.398 39.5039C234.891 39.5039 233.439 38.4975 233.439 36.6166V36.5836H234.61V36.6826C234.61 38.052 235.418 38.5304 237.415 38.5304C239.246 38.5304 239.873 38.1015 239.873 37.1611C239.873 36.3032 239.362 36.0227 238.009 35.8082L235.831 35.4947C234.346 35.2968 233.406 34.7193 233.406 33.3665C233.406 31.9311 234.775 31.0237 237.019 31.0237C239.362 31.0237 240.879 32.0136 240.879 33.9274V33.9604H239.708V33.8779C239.708 32.657 239.065 31.9971 236.986 31.9971C235.27 31.9971 234.561 32.4095 234.561 33.383C234.561 34.2244 234.99 34.5213 236.342 34.7193L238.339 34.9998C240.088 35.2473 241.028 35.8412 241.028 37.1611C241.028 38.6954 239.51 39.5039 237.398 39.5039ZM247.566 39.3389H245.8C244.184 39.3389 243.144 38.6624 243.144 36.7486V32.1951H241.692V31.1887H243.144V29.2419H244.332V31.1887H247.566V32.1951H244.332V36.8146C244.332 37.953 244.893 38.2665 246.081 38.2665H247.566V39.3389ZM253.074 39.3389H251.325L248.124 28.285H249.428L251.622 35.9072L252.2 38.1675H252.299L252.958 35.9072L255.532 28.285H257.182L260.02 35.9072L260.762 38.1675H260.845L261.356 35.9072L263.286 28.285H264.573L261.719 39.3389H259.97L257.281 32.1456L256.407 29.5718H256.291L255.516 32.1456L253.074 39.3389ZM270.765 39.3389H269.593V29.3574H265.04V28.285H275.302V29.3574H270.765V39.3389ZM276.845 39.3389H275.558L280.557 28.285H282.191L287.206 39.3389H285.886L284.402 36.0887H278.33L276.845 39.3389ZM280.706 30.8422L278.809 35.0328H283.923L282.009 30.8422L281.399 29.4068H281.3L280.706 30.8422ZM293.44 39.5039C290.156 39.5039 287.863 37.2601 287.863 33.8119C287.863 30.3638 290.156 28.12 293.44 28.12C296.756 28.12 299.049 30.3638 299.049 33.8119C299.049 37.2601 296.756 39.5039 293.44 39.5039ZM293.44 38.3655C296.244 38.3655 297.812 36.8146 297.812 33.8119C297.812 30.8092 296.244 29.2584 293.44 29.2584C290.651 29.2584 289.101 30.8092 289.101 33.8119C289.101 36.8146 290.651 38.3655 293.44 38.3655Z" fill="white"/>
<rect x="218.228" y="69.7932" width="73.1025" height="20.0205" rx="2.51025" fill="black"/>
<rect x="218.228" y="69.7932" width="73.1025" height="20.0205" rx="2.51025" stroke="white" stroke-width="0.313781" stroke-dasharray="2.51 2.51"/>
<g clip-path="url(#clip4_140_9342)">
<path d="M224.525 79.5586V84.3339C224.555 84.7537 224.864 85.0944 225.285 85.0944H227.64V79.5586H224.525Z" fill="white" fill-opacity="0.2"/>
<path d="M231.439 79.5586V85.0944H233.794C234.216 85.0944 234.555 84.7549 234.555 84.3339V79.5586H231.439Z" fill="white" fill-opacity="0.2"/>
<path d="M231.909 75.6351C232.363 75.6351 232.628 75.9843 232.622 76.2241C232.615 76.4804 232.444 76.6795 232.193 76.6795H230.635L230.991 76.242C231.325 75.8357 231.578 75.6351 231.909 75.6351ZM226.993 75.6351C227.326 75.6351 227.577 75.8357 227.912 76.242L228.267 76.6795H226.71C226.458 76.6795 226.287 76.4804 226.28 76.2241C226.274 75.9843 226.54 75.6351 226.993 75.6351ZM226.893 74.5239C225.991 74.5239 225.255 75.2638 225.155 76.0912C225.132 76.2846 225.149 76.4883 225.205 76.6844H224.654C224.289 76.6844 223.995 76.9916 223.995 77.3738V78.2274C223.995 78.6087 224.289 78.9157 224.654 78.9157H234.425C234.79 78.9157 235.085 78.6088 235.085 78.2274V77.3738C235.085 76.9916 234.79 76.6844 234.425 76.6844H233.696C233.753 76.4883 233.77 76.2846 233.747 76.0912C233.647 75.2636 232.912 74.5239 231.909 74.5239C231.107 74.5239 230.539 75.0423 230.134 75.5342C229.411 76.4703 229.536 76.4689 228.769 75.5342C228.363 75.0422 227.795 74.5239 226.893 74.5239Z" fill="white" fill-opacity="0.2"/>
<path d="M228.477 79.5586H230.603V85.0944H228.477V79.5586Z" fill="white" fill-opacity="0.2"/>
</g>
<path d="M242.941 84.429C240.481 84.429 238.749 82.722 238.749 80.0988C238.749 77.4756 240.481 75.7686 242.941 75.7686C245.113 75.7686 246.757 76.9861 246.757 78.8939V79.0445H245.791V78.8939C245.791 77.463 244.799 76.6347 242.954 76.6347C240.858 76.6347 239.691 77.8145 239.691 80.0988C239.691 82.3831 240.858 83.5629 242.954 83.5629C244.799 83.5629 245.791 82.7346 245.791 81.3037V81.1531H246.757V81.3037C246.757 83.2115 245.125 84.429 242.941 84.429ZM248.841 84.3035H247.95V75.8941H248.841V84.3035ZM252.059 84.429C250.842 84.429 250.013 83.8516 250.013 82.8475C250.013 81.8309 250.854 81.3916 252.009 81.2661L254.958 80.9397V80.4628C254.958 79.2579 254.431 78.7809 253.076 78.7809C251.745 78.7809 251.042 79.2579 251.042 80.3498V80.4H250.151V80.3498C250.151 79.0445 251.231 77.9776 253.139 77.9776C255.021 77.9776 255.825 79.0571 255.825 80.4251V84.3035H255.021V82.6342H254.958C254.594 83.7763 253.503 84.429 252.059 84.429ZM250.904 82.7848C250.904 83.4123 251.319 83.7387 252.26 83.7387C253.766 83.7387 254.958 83.0734 254.958 81.5798V81.5296L252.285 81.8309C251.356 81.9187 250.904 82.1447 250.904 82.7848ZM258.181 77.3124H257.289V75.8941H258.181V77.3124ZM258.181 84.3035H257.289V78.1032H258.181V84.3035ZM260.571 84.3035H259.68V78.1032H260.483V79.9733H260.533C260.709 78.9315 261.424 77.9776 262.968 77.9776C264.349 77.9776 265.127 78.8311 265.328 80.036H265.39C265.566 78.9692 266.307 77.9776 267.863 77.9776C269.482 77.9776 270.323 79.1198 270.323 80.6887V84.3035H269.432V80.8142C269.432 79.4336 268.842 78.7935 267.537 78.7935C266.043 78.7935 265.441 79.6595 265.441 81.3037V84.3035H264.549V80.8142C264.549 79.4336 263.972 78.7935 262.667 78.7935C261.161 78.7935 260.571 79.6595 260.571 81.3037V84.3035ZM274.727 84.429C272.731 84.429 271.463 83.1739 271.463 81.2033C271.463 79.3206 272.719 77.9776 274.714 77.9776C276.534 77.9776 277.827 79.032 277.827 80.877C277.827 81.1029 277.802 81.2912 277.764 81.4543H272.304C272.355 82.8475 273.07 83.6885 274.714 83.6885C276.17 83.6885 276.848 83.1488 276.848 82.2451V82.1572H277.739V82.2451C277.739 83.5378 276.459 84.429 274.727 84.429ZM274.702 78.7182C273.095 78.7182 272.367 79.5466 272.304 80.9021H276.986C276.986 80.8393 276.986 80.7766 276.986 80.7138C276.986 79.4085 276.158 78.7182 274.702 78.7182ZM281.682 84.429C279.699 84.429 278.595 83.086 278.595 81.2033C278.595 79.3206 279.699 77.9776 281.607 77.9776C283.075 77.9776 283.992 78.7684 284.268 79.8352H284.331V75.8941H285.222V84.3035H284.406V82.471H284.356C284.054 83.7136 283.05 84.429 281.682 84.429ZM279.498 81.2033C279.498 82.9981 280.452 83.6131 281.908 83.6131C283.364 83.6131 284.331 82.7722 284.331 81.3037V81.1908C284.331 79.6595 283.414 78.806 281.883 78.806C280.465 78.806 279.498 79.4085 279.498 81.2033Z" fill="white" fill-opacity="0.2"/>
<rect x="218.228" y="111.968" width="73.1025" height="20.0205" rx="2.51025" fill="black"/>
<rect x="218.228" y="111.968" width="73.1025" height="20.0205" rx="2.51025" stroke="white" stroke-width="0.313781" stroke-dasharray="2.51 2.51"/>
<g clip-path="url(#clip5_140_9342)">
<path d="M224.525 121.733V126.509C224.555 126.928 224.864 127.269 225.285 127.269H227.64V121.733H224.525Z" fill="white" fill-opacity="0.2"/>
<path d="M231.439 121.733V127.269H233.794C234.216 127.269 234.555 126.93 234.555 126.509V121.733H231.439Z" fill="white" fill-opacity="0.2"/>
<path d="M231.909 117.81C232.363 117.81 232.628 118.159 232.622 118.399C232.615 118.655 232.444 118.855 232.193 118.855H230.635L230.991 118.417C231.325 118.011 231.578 117.81 231.909 117.81ZM226.993 117.81C227.326 117.81 227.577 118.011 227.912 118.417L228.267 118.855H226.71C226.458 118.855 226.287 118.655 226.28 118.399C226.274 118.159 226.54 117.81 226.993 117.81ZM226.893 116.699C225.991 116.699 225.255 117.439 225.155 118.266C225.132 118.46 225.149 118.663 225.205 118.859H224.654C224.289 118.859 223.995 119.167 223.995 119.549V120.402C223.995 120.784 224.289 121.091 224.654 121.091H234.425C234.79 121.091 235.085 120.784 235.085 120.402V119.549C235.085 119.167 234.79 118.859 234.425 118.859H233.696C233.753 118.663 233.77 118.46 233.747 118.266C233.647 117.439 232.912 116.699 231.909 116.699C231.107 116.699 230.539 117.217 230.134 117.709C229.411 118.645 229.536 118.644 228.769 117.709C228.363 117.217 227.795 116.699 226.893 116.699Z" fill="white" fill-opacity="0.2"/>
<path d="M228.477 121.733H230.603V127.269H228.477V121.733Z" fill="white" fill-opacity="0.2"/>
</g>
<path d="M242.941 126.604C240.481 126.604 238.749 124.897 238.749 122.274C238.749 119.651 240.481 117.944 242.941 117.944C245.113 117.944 246.757 119.161 246.757 121.069V121.22H245.791V121.069C245.791 119.638 244.799 118.81 242.954 118.81C240.858 118.81 239.691 119.99 239.691 122.274C239.691 124.558 240.858 125.738 242.954 125.738C244.799 125.738 245.791 124.91 245.791 123.479V123.328H246.757V123.479C246.757 125.387 245.125 126.604 242.941 126.604ZM248.841 126.479H247.95V118.069H248.841V126.479ZM252.059 126.604C250.842 126.604 250.013 126.027 250.013 125.023C250.013 124.006 250.854 123.567 252.009 123.441L254.958 123.115V122.638C254.958 121.433 254.431 120.956 253.076 120.956C251.745 120.956 251.042 121.433 251.042 122.525V122.575H250.151V122.525C250.151 121.22 251.231 120.153 253.139 120.153C255.021 120.153 255.825 121.232 255.825 122.6V126.479H255.021V124.809H254.958C254.594 125.951 253.503 126.604 252.059 126.604ZM250.904 124.96C250.904 125.587 251.319 125.914 252.26 125.914C253.766 125.914 254.958 125.248 254.958 123.755V123.705L252.285 124.006C251.356 124.094 250.904 124.32 250.904 124.96ZM258.181 119.487H257.289V118.069H258.181V119.487ZM258.181 126.479H257.289V120.278H258.181V126.479ZM260.571 126.479H259.68V120.278H260.483V122.148H260.533C260.709 121.107 261.424 120.153 262.968 120.153C264.349 120.153 265.127 121.006 265.328 122.211H265.39C265.566 121.144 266.307 120.153 267.863 120.153C269.482 120.153 270.323 121.295 270.323 122.864V126.479H269.432V122.989C269.432 121.609 268.842 120.969 267.537 120.969C266.043 120.969 265.441 121.835 265.441 123.479V126.479H264.549V122.989C264.549 121.609 263.972 120.969 262.667 120.969C261.161 120.969 260.571 121.835 260.571 123.479V126.479ZM274.727 126.604C272.731 126.604 271.463 125.349 271.463 123.378C271.463 121.496 272.719 120.153 274.714 120.153C276.534 120.153 277.827 121.207 277.827 123.052C277.827 123.278 277.802 123.466 277.764 123.629H272.304C272.355 125.023 273.07 125.864 274.714 125.864C276.17 125.864 276.848 125.324 276.848 124.42V124.332H277.739V124.42C277.739 125.713 276.459 126.604 274.727 126.604ZM274.702 120.893C273.095 120.893 272.367 121.722 272.304 123.077H276.986C276.986 123.014 276.986 122.952 276.986 122.889C276.986 121.584 276.158 120.893 274.702 120.893ZM281.682 126.604C279.699 126.604 278.595 125.261 278.595 123.378C278.595 121.496 279.699 120.153 281.607 120.153C283.075 120.153 283.992 120.943 284.268 122.01H284.331V118.069H285.222V126.479H284.406V124.646H284.356C284.054 125.889 283.05 126.604 281.682 126.604ZM279.498 123.378C279.498 125.173 280.452 125.788 281.908 125.788C283.364 125.788 284.331 124.947 284.331 123.479V123.366C284.331 121.835 283.414 120.981 281.883 120.981C280.465 120.981 279.498 121.584 279.498 123.378Z" fill="white" fill-opacity="0.2"/>
<rect x="218.228" y="154.144" width="73.1025" height="20.0205" rx="2.51025" fill="black"/>
<rect x="218.228" y="154.144" width="73.1025" height="20.0205" rx="2.51025" stroke="white" stroke-width="0.313781" stroke-dasharray="2.51 2.51"/>
<g clip-path="url(#clip6_140_9342)">
<path d="M224.525 163.909V168.684C224.555 169.104 224.864 169.444 225.285 169.444H227.64V163.909H224.525Z" fill="white"/>
<path d="M231.439 163.909V169.444H233.794C234.216 169.444 234.555 169.105 234.555 168.684V163.909H231.439Z" fill="white"/>
<path d="M231.909 159.985C232.363 159.985 232.628 160.335 232.622 160.574C232.615 160.831 232.444 161.03 232.193 161.03H230.635L230.991 160.592C231.325 160.186 231.578 159.985 231.909 159.985ZM226.993 159.985C227.326 159.985 227.577 160.186 227.912 160.592L228.267 161.03H226.71C226.458 161.03 226.287 160.831 226.28 160.574C226.274 160.335 226.54 159.985 226.993 159.985ZM226.893 158.874C225.991 158.874 225.255 159.614 225.155 160.441C225.132 160.635 225.149 160.839 225.205 161.035H224.654C224.289 161.035 223.995 161.342 223.995 161.724V162.578C223.995 162.959 224.289 163.266 224.654 163.266H234.425C234.79 163.266 235.085 162.959 235.085 162.578V161.724C235.085 161.342 234.79 161.035 234.425 161.035H233.696C233.753 160.839 233.77 160.635 233.747 160.441C233.647 159.614 232.912 158.874 231.909 158.874C231.107 158.874 230.539 159.393 230.134 159.885C229.411 160.821 229.536 160.819 228.769 159.885C228.363 159.392 227.795 158.874 226.893 158.874Z" fill="white"/>
<path d="M228.477 163.909H230.603V169.444H228.477V163.909Z" fill="white"/>
</g>
<path d="M239.954 168.654H239.063V160.244H243.18C244.937 160.244 246.129 161.136 246.129 162.679C246.129 164.098 245.088 164.976 243.531 165.014V165.077C244.084 165.227 244.397 165.591 244.686 166.081L246.268 168.654H245.238L243.745 166.219C243.318 165.516 242.879 165.215 241.762 165.215H239.954V168.654ZM239.954 161.06V164.499H243.167C244.498 164.499 245.201 163.972 245.201 162.78C245.201 161.587 244.498 161.06 243.167 161.06H239.954ZM250.249 168.779C248.254 168.779 246.986 167.524 246.986 165.554C246.986 163.671 248.241 162.328 250.237 162.328C252.057 162.328 253.35 163.382 253.35 165.227C253.35 165.453 253.324 165.642 253.287 165.805H247.827C247.877 167.198 248.593 168.039 250.237 168.039C251.693 168.039 252.371 167.499 252.371 166.595V166.508H253.262V166.595C253.262 167.888 251.981 168.779 250.249 168.779ZM250.224 163.069C248.618 163.069 247.89 163.897 247.827 165.252H252.509C252.509 165.19 252.509 165.127 252.509 165.064C252.509 163.759 251.68 163.069 250.224 163.069ZM256.992 168.654H255.887L253.904 162.454H254.82L256.138 166.558L256.452 167.876H256.527L256.954 166.482L258.586 162.454H259.728L261.347 166.482L261.774 167.863H261.849L262.15 166.558L263.481 162.454H264.397L262.389 168.654H261.272L259.665 164.6L259.175 163.219H259.113L258.623 164.6L256.992 168.654ZM266.988 168.779C265.771 168.779 264.942 168.202 264.942 167.198C264.942 166.181 265.783 165.742 266.938 165.616L269.888 165.29V164.813C269.888 163.608 269.36 163.131 268.005 163.131C266.674 163.131 265.972 163.608 265.972 164.7V164.75H265.08V164.7C265.08 163.395 266.16 162.328 268.068 162.328C269.95 162.328 270.754 163.407 270.754 164.775V168.654H269.95V166.984H269.888C269.524 168.127 268.432 168.779 266.988 168.779ZM265.834 167.135C265.834 167.763 266.248 168.089 267.189 168.089C268.695 168.089 269.888 167.424 269.888 165.93V165.88L267.214 166.181C266.285 166.269 265.834 166.495 265.834 167.135ZM273.11 168.654H272.218V162.454H273.022V164.148H273.085C273.273 163.156 273.976 162.328 275.268 162.328C276.699 162.328 277.327 163.382 277.327 164.537V165.152H276.436V164.675C276.436 163.621 275.996 163.106 274.917 163.106C273.662 163.106 273.11 163.897 273.11 165.29V168.654ZM281.033 168.779C279.05 168.779 277.945 167.436 277.945 165.554C277.945 163.671 279.05 162.328 280.957 162.328C282.426 162.328 283.342 163.119 283.618 164.186H283.681V160.244H284.572V168.654H283.756V166.821H283.706C283.405 168.064 282.401 168.779 281.033 168.779ZM278.849 165.554C278.849 167.348 279.803 167.963 281.259 167.963C282.715 167.963 283.681 167.123 283.681 165.654V165.541C283.681 164.01 282.765 163.156 281.233 163.156C279.815 163.156 278.849 163.759 278.849 165.554Z" fill="white"/>
<defs>
<clipPath id="clip0_140_9342">
<rect width="19.798" height="19.798" fill="white" transform="translate(43.4342 24.4397)"/>
</clipPath>
<clipPath id="clip1_140_9342">
<rect width="9.41342" height="9.41342" fill="white" transform="translate(66.3348 120.818)"/>
</clipPath>
<clipPath id="clip2_140_9342">
<rect width="9.41342" height="9.41342" fill="white" transform="translate(66.3348 161.575)"/>
</clipPath>
<clipPath id="clip3_140_9342">
<rect width="19.798" height="19.798" fill="white" transform="translate(209.731 24.4397)"/>
</clipPath>
<clipPath id="clip4_140_9342">
<rect width="12.5512" height="12.5512" fill="white" transform="translate(223.249 73.5278)"/>
</clipPath>
<clipPath id="clip5_140_9342">
<rect width="12.5512" height="12.5512" fill="white" transform="translate(223.249 115.703)"/>
</clipPath>
<clipPath id="clip6_140_9342">
<rect width="12.5512" height="12.5512" fill="white" transform="translate(223.249 157.878)"/>
</clipPath>
</defs>
</svg>
