<svg width="139" height="30" viewBox="0 0 139 30" fill="none" xmlns="http://www.w3.org/2000/svg">
<path d="M5.73816 17.7055L12.7848 8.26004L17.4893 14.7211C18.5596 16.1912 19.1363 17.9628 19.1363 19.7813C19.1363 25.0107 14.897 29.25 9.66757 29.25H9.56815C4.28381 29.25 0 24.9662 0 19.6819V19.4334C0 17.7181 0.55074 16.0482 1.57113 14.6694L7.17264 7.10058C7.63078 6.48153 7.87805 5.73175 7.87805 4.96162H0V4.56635C0 2.45864 1.70864 0.75 3.81636 0.75H19.0545L19.0417 1.24404C18.9882 3.31259 17.2959 4.96162 15.2267 4.96162H12.1578C12.1578 6.61832 11.6342 8.23263 10.6617 9.57389L4.934 17.4738C3.91261 18.9691 3.94312 20.9455 5.01018 22.4086L5.1674 22.6241C6.98357 25.1144 10.524 25.5563 12.8966 23.5889L13.1902 23.3454C14.9373 21.8966 15.3137 19.3649 14.0635 17.4706L12.6894 15.3885L11.1639 17.3143C9.88905 18.9236 7.54384 19.1786 5.95295 17.8807L5.73816 17.7055Z" fill="white"/>
<path d="M31.3924 22H28.0324V6.992H36.3204C40.0164 6.992 42.122 8.6272 42.122 11.4944C42.122 13.936 40.7108 15.392 37.8884 15.6608V15.84C39.2324 16.1984 39.7476 16.9152 40.3076 17.968L42.4804 22H38.5828L36.522 18.1024C35.9172 16.9376 35.3572 16.5568 33.61 16.5568H31.3924V22ZM31.3924 10.016V14.0256H36.298C37.8884 14.0256 38.6052 13.5776 38.6052 12.0096C38.6052 10.5312 37.8884 10.016 36.298 10.016H31.3924ZM46.9017 9.6352H43.5417V6.992H46.9017V9.6352ZM46.9017 22H43.5417V10.7776H46.9017V22ZM57.0157 22H52.8717L47.7645 10.7776H51.5053L54.8653 18.7296H55.0893L58.4717 10.7776H62.1453L57.0157 22ZM67.6692 22.224C64.5108 22.224 63.01 20.2752 63.01 17.7664V10.7776H66.37V16.6464C66.37 18.4608 67.1316 19.2224 69.2596 19.2224C71.4548 19.2224 72.2388 18.3712 72.2388 16.4672V10.7776H75.5988V22H72.4628V18.5728H72.2836C71.9924 20.4544 70.626 22.224 67.6692 22.224ZM82.9839 22.224C79.1983 22.224 77.1151 20.7456 77.1151 18.1472V18.08H80.4751V18.2816C80.4751 19.2896 81.1023 19.5584 83.0063 19.5584C84.7983 19.5584 85.2239 19.2672 85.2239 18.5952C85.2239 17.968 84.8879 17.7888 83.5663 17.6096L80.4079 17.2288C78.1679 16.9824 76.9135 15.9744 76.9135 14.0928C76.9135 12.1216 78.5935 10.5536 82.4463 10.5536C86.1199 10.5536 88.2031 11.9424 88.2031 14.6752V14.7424H84.8431V14.608C84.8431 13.6896 84.3951 13.2192 82.3343 13.2192C80.6543 13.2192 80.2287 13.5104 80.2287 14.2272C80.2287 14.8096 80.5423 15.056 82.0207 15.2352L84.4175 15.5264C87.4191 15.8624 88.5391 16.8704 88.5391 18.7296C88.5391 20.8352 86.4559 22.224 82.9839 22.224ZM96.9061 22H90.3877V6.992H96.9061C101.408 6.992 104.276 9.904 104.276 14.496C104.276 19.088 101.408 22 96.9061 22ZM96.9061 8.448H92.0005V20.544H96.9061C100.714 20.544 102.596 18.5728 102.596 14.496C102.596 10.4192 100.714 8.448 96.9061 8.448ZM106.914 22H105.167L111.954 6.992H114.172L120.981 22H119.19L117.173 17.5872H108.93L106.914 22ZM112.156 10.464L109.58 16.1536H116.524L113.925 10.464L113.097 8.5152H112.962L112.156 10.464ZM129.445 22.224C124.987 22.224 121.873 19.1776 121.873 14.496C121.873 9.8144 124.987 6.768 129.445 6.768C133.947 6.768 137.061 9.8144 137.061 14.496C137.061 19.1776 133.947 22.224 129.445 22.224ZM129.445 20.6784C133.253 20.6784 135.381 18.5728 135.381 14.496C135.381 10.4192 133.253 8.3136 129.445 8.3136C125.659 8.3136 123.553 10.4192 123.553 14.496C123.553 18.5728 125.659 20.6784 129.445 20.6784Z" fill="white"/>
</svg>
