<svg width="145" height="146" viewBox="0 0 145 146" fill="none" xmlns="http://www.w3.org/2000/svg">
<g clip-path="url(#clip0_88_8354)">
<path d="M81.1545 60.7084L77.8871 56.7869C69.3431 66.4074 44.3333 99.2897 45.3067 113.075C47.0912 156.288 108.681 156.294 110.468 113.074C111.684 100.801 88.7259 69.3828 81.1545 60.7084Z" fill="white"/>
<path d="M60.8751 50.2548C61.4132 42.9252 49.1572 26.8124 43.1622 20.0232C39.1987 24.8943 38.8673 24.7814 32.9111 33.2882C25.4497 44.304 25.4497 48.783 25.4497 50.2548C26.4202 73.7486 59.904 73.7503 60.8751 50.2548Z" fill="white"/>
<path d="M112.611 48.5921C122.378 48.5921 130.324 40.6464 130.324 30.8796C130.856 23.5412 118.623 7.45896 112.611 0.647949C106.553 7.51028 94.3596 23.5769 94.8989 30.8798C94.8989 40.6461 102.845 48.5921 112.611 48.5921Z" fill="white"/>
<path d="M73.634 17.4988H82.14V26.0047H73.634V17.4988Z" fill="white"/>
<path d="M82.1401 8.99268H90.6461V17.4986H82.1401V8.99268Z" fill="white"/>
<path d="M65.1282 8.99268H73.6341V17.4986H65.1282V8.99268Z" fill="white"/>
<path d="M73.634 0.486816H82.14V8.99278H73.634V0.486816Z" fill="white"/>
<path d="M18.3452 101.424H26.8512V109.93H18.3452V101.424Z" fill="white"/>
<path d="M26.8513 92.9182H35.3573V101.424H26.8513V92.9182Z" fill="white"/>
<path d="M9.83936 92.9182H18.3453V101.424H9.83936V92.9182Z" fill="white"/>
<path d="M18.3452 84.4124H26.8512V92.9183H18.3452V84.4124Z" fill="white"/>
<path d="M118.149 76.4734H126.655V84.9794H118.149V76.4734Z" fill="white"/>
<path d="M126.655 67.9675H135.161V76.4735H126.655V67.9675Z" fill="white"/>
<path d="M109.643 67.9675H118.149V76.4735H109.643V67.9675Z" fill="white"/>
<path d="M118.149 59.4614H126.655V67.9674H118.149V59.4614Z" fill="white"/>
</g>
<defs>
<clipPath id="clip0_88_8354">
<rect width="145" height="145" fill="white" transform="translate(0 0.486816)"/>
</clipPath>
</defs>
</svg>
