<svg width="145" height="146" viewBox="0 0 145 146" fill="none" xmlns="http://www.w3.org/2000/svg">
<g clip-path="url(#clip0_88_8314)">
<path d="M122.879 72.092H140.752C143.097 72.092 145 70.1917 145 67.8439C145 65.499 143.097 63.5959 140.752 63.5959H124.567C126.603 50.7611 125.657 42.081 125.603 41.6137C125.411 39.9343 124.241 38.5296 122.627 38.0368C116.173 36.0601 110.548 34.055 105.655 32.0895V21.5884H120.242C121.995 26.5331 126.719 30.0845 132.256 30.0845C139.282 30.0845 145 24.3666 145 17.3403C145 10.3112 139.282 4.59619 132.256 4.59619C126.719 4.59619 121.995 8.14756 120.242 13.0923H101.407C99.0588 13.0923 97.1585 14.9926 97.1585 17.3403V28.3937C81.4124 20.9597 76.193 14.8623 75.8786 14.4828C74.1814 12.1478 70.82 12.1458 69.1214 14.4828C68.807 14.8623 63.5876 20.9597 47.8415 28.3937V17.3403C47.8415 14.9926 45.9412 13.0923 43.5935 13.0923H24.7576C23.0046 8.14756 18.2808 4.59619 12.7441 4.59619C5.71787 4.59619 0 10.3112 0 17.3403C0 24.3666 5.71787 30.0845 12.7441 30.0845C18.2808 30.0845 23.0046 26.5331 24.7576 21.5884H39.3454V32.0895C34.4517 34.055 28.8272 36.0601 22.373 38.0368C20.7588 38.5296 19.5892 39.9343 19.3966 41.6137C19.3428 42.081 18.3969 50.7611 20.4331 63.5959H4.24805C1.90313 63.5959 0 65.499 0 67.8439C0 70.1917 1.90313 72.092 4.24805 72.092H22.121C23.0491 75.9569 24.1337 79.6716 25.5789 83.7175H13.9081C11.5632 83.7175 9.66006 85.6178 9.66006 87.9655C9.66006 90.3105 11.5632 92.2136 13.9081 92.2136H29.0057C32.6921 100.365 37.1783 107.732 42.489 114.606H24.7576C23.0046 109.662 18.2808 106.11 12.7441 106.11C5.71787 106.11 0 111.828 0 118.854C0 125.881 5.71787 131.599 12.7441 131.599C18.2808 131.599 23.0046 128.047 24.7576 123.103H49.7333C55.7174 129.483 62.5114 135.343 70.0701 140.613C71.5317 141.633 73.4686 141.633 74.9299 140.613C82.4886 135.343 89.2826 129.483 95.2667 123.103H120.242C121.995 128.047 126.719 131.599 132.256 131.599C139.282 131.599 145 125.881 145 118.854C145 111.828 139.282 106.11 132.256 106.11C126.719 106.11 121.995 109.662 120.242 114.606H102.511C107.809 107.749 112.299 100.383 115.994 92.2136H131.092C133.437 92.2136 135.34 90.3105 135.34 87.9655C135.34 85.6178 133.437 83.7175 131.092 83.7175H119.421C120.865 79.6765 121.95 75.9617 122.879 72.092ZM95.8756 93.8533C95.8756 98.124 92.4035 101.596 88.1328 101.596H56.8672C52.5965 101.596 49.1244 98.124 49.1244 93.8533V69.5262C49.1244 66.1504 51.2937 63.2759 54.3127 62.2167V59.4526C54.3127 49.4244 62.4718 41.2653 72.5 41.2653C82.5282 41.2653 90.6873 49.4244 90.6873 59.4526V62.2167C93.7063 63.2759 95.8756 66.1504 95.8756 69.5262V93.8533Z" fill="white"/>
<path d="M57.6206 70.2795V93.1H87.3796V70.2795H57.6206ZM76.7481 83.1879C76.7481 85.5357 74.845 87.436 72.5001 87.436C70.1552 87.436 68.252 85.5357 68.252 83.1879V80.1917C68.252 77.8439 70.1552 75.9436 72.5001 75.9436C74.845 75.9436 76.7481 77.8439 76.7481 80.1917V83.1879Z" fill="white"/>
<path d="M82.1913 59.4527V61.7834H62.8088V59.4527C62.8088 54.1086 67.156 49.7615 72.5 49.7615C77.8441 49.7615 82.1913 54.1086 82.1913 59.4527Z" fill="white"/>
</g>
<defs>
<clipPath id="clip0_88_8314">
<rect width="145" height="145" fill="white" transform="translate(0 0.486816)"/>
</clipPath>
</defs>
</svg>
