<svg width="20" height="21" viewBox="0 0 20 21" fill="none" xmlns="http://www.w3.org/2000/svg">
<path d="M5.14563 10.6377C5.14563 7.95642 7.31931 5.78333 10 5.78333C12.6807 5.78333 14.8544 7.95583 14.8544 10.6371C14.8544 13.3184 12.6807 15.4915 10 15.4915C7.31927 15.4915 5.14563 13.3189 5.14563 10.6377ZM10.6043 12.6051L11.9674 11.242C12.3011 10.9083 12.3015 10.3669 11.9674 10.0334C11.9674 10.0334 11.9674 10.0334 11.9674 10.0334C11.9673 10.0333 11.9672 10.0333 11.9672 10.0332L10.6043 8.6703C10.2704 8.33642 9.72961 8.33642 9.39573 8.6703L8.0326 10.0334C7.69872 10.3673 7.69872 10.9081 8.0326 11.242L9.39573 12.6051C9.72961 12.939 10.2704 12.939 10.6043 12.6051Z" stroke="black" stroke-width="0.5"/>
<path d="M14.6954 3.89203L14.7669 3.7006L14.5935 3.59247C14.055 3.25663 13.2961 2.84192 12.6659 2.63492C10.9542 2.05584 9.0397 2.05784 7.33758 2.63332C7.17297 2.68853 6.99639 2.60031 6.94114 2.43698L6.94104 2.43668C6.88557 2.2734 6.97323 2.09605 7.13679 2.04084L7.13685 2.04082C8.96807 1.4221 11.0306 1.4221 12.8618 2.04082L12.8618 2.04083L12.8641 2.04158C13.5669 2.27143 14.4183 2.73742 15.0274 3.12599L15.1651 3.21383L15.3008 3.12301C15.9213 2.70792 16.7675 2.77381 17.315 3.32137L17.3151 3.32145C17.9386 3.94442 17.9386 4.95539 17.3151 5.57837L17.315 5.57852C16.692 6.20204 15.681 6.20204 15.0581 5.57852L15.058 5.57844C14.603 5.12342 14.483 4.46095 14.6954 3.89203Z" stroke="black" stroke-width="0.5"/>
<path d="M12.6626 18.642L12.6627 18.642C12.8264 18.5865 13.0031 18.6738 13.0589 18.8375C13.1144 19.0008 13.0267 19.1781 12.8631 19.2334L12.8631 19.2334C11.948 19.5427 10.985 19.7002 10.0006 19.7002C9.01618 19.7002 8.05324 19.5427 7.13815 19.2334L7.13815 19.2334L7.1359 19.2326C6.52317 19.032 5.61958 18.567 4.94717 18.159L4.81293 18.0775L4.68126 18.1631C4.06231 18.5653 3.22694 18.4955 2.68488 17.9534L2.6848 17.9534C2.06133 17.3304 2.06122 16.32 2.68488 15.6964C3.3078 15.0734 4.31826 15.0733 4.94195 15.6964C5.40156 16.1566 5.52021 16.8273 5.2998 17.3998L5.22372 17.5974L5.40608 17.7049C6.01529 18.0643 6.80622 18.4674 7.33412 18.6405C9.04583 19.2196 10.9604 19.2176 12.6626 18.642Z" stroke="black" stroke-width="0.5"/>
<path d="M18.1993 7.57962L18.1993 7.57962C18.0362 7.63468 17.9484 7.81189 18.0037 7.97591C18.2914 8.82653 18.4375 9.72294 18.4375 10.6384C18.4375 11.5535 18.2914 12.4496 18.0022 13.3048C17.8171 13.8702 17.4495 14.6477 17.103 15.2434L16.9936 15.4315L16.7922 15.3491C16.2144 15.1127 15.5267 15.229 15.0587 15.697C14.435 16.3207 14.4351 17.3311 15.0586 17.954L15.0587 17.9542C15.6817 18.5777 16.6927 18.5777 17.3157 17.9542L17.3157 17.9541C17.8475 17.4223 17.9222 16.6095 17.5439 15.9936L17.4637 15.8631L17.5435 15.7325C17.9457 15.0738 18.3837 14.1495 18.5949 13.5032L18.5957 13.5007L18.5957 13.5007C18.9055 12.5858 19.0625 11.6229 19.0625 10.6378C19.0625 9.65259 18.9055 8.68974 18.5957 7.77551L18.1993 7.57962ZM18.1993 7.57962L18.2002 7.57931M18.1993 7.57962L18.2002 7.57931M18.2002 7.57931C18.3627 7.52377 18.5398 7.61051 18.5957 7.77549L18.2002 7.57931Z" stroke="black" stroke-width="0.5"/>
<path d="M3.23596 5.93651L3.03812 5.85984L2.9303 6.04259C2.57505 6.64475 2.17269 7.43677 1.99777 7.97135C1.70855 8.82658 1.5625 9.72263 1.5625 10.6377C1.5625 11.5531 1.708 12.449 1.99631 13.3004C2.05137 13.4631 1.96369 13.6405 1.80157 13.6958C1.76617 13.7075 1.73242 13.7127 1.70062 13.7127C1.56935 13.7127 1.4483 13.6303 1.40435 13.5002L1.40427 13.5C1.09447 12.5858 0.9375 11.6229 0.9375 10.6377C0.9375 9.65257 1.09447 8.68971 1.40427 7.77548L1.40429 7.77549L1.40515 7.77286C1.60836 7.15064 2.07341 6.24514 2.47677 5.58132L2.55824 5.44725L2.47295 5.31558C2.07244 4.69724 2.14275 3.86301 2.68419 3.32211L2.68435 3.32195C3.30729 2.69847 4.31769 2.69836 4.94135 3.32202C5.56434 3.94502 5.56434 4.9561 4.94135 5.57909C4.48054 6.03991 3.80878 6.15849 3.23596 5.93651Z" stroke="black" stroke-width="0.5"/>
</svg>
